<svg width="148" height="27" viewBox="0 0 148 27" fill="none" xmlns="http://www.w3.org/2000/svg">
<path d="M21.5399 18.5202V4.80017H18.7899C18.4218 4.82271 18.0628 4.92358 17.7369 5.09603C17.4109 5.26849 17.1256 5.50855 16.8999 5.80017L13.8999 9.39017L6.22988 18.5302H0.129883L11.0599 5.53017L13.3299 2.83018C13.9922 2.01762 14.8239 1.35949 15.767 0.901768C16.7101 0.444048 17.7417 0.197782 18.7899 0.180176H26.1999V18.5202H21.5399Z" fill="black"/>
<path d="M29.2598 0.140137H54.2098V4.27014H44.0698V18.5201H39.3998V4.27014H29.2598V0.140137Z" fill="black"/>
<path d="M89.9998 0.140137V18.5201H85.3398V0.140137H89.9998Z" fill="black"/>
<path d="M61.9295 0.140137V18.5201H57.2695V0.140137H61.9295ZM77.5495 7.26014V0.140137H82.2195V18.5201H77.5495V11.3901H64.5495V7.26014H77.5495Z" fill="black"/>
<path d="M113.43 13.8399V0.139851H118.1V18.5199H113.67C112.586 18.5321 111.512 18.2992 110.531 17.8386C109.549 17.3781 108.684 16.7016 108 15.8599L99.55 5.78985C99.3261 5.49629 99.0412 5.25484 98.7149 5.08218C98.3886 4.90953 98.0286 4.80979 97.66 4.78985V18.5199H93V0.139851H97.43C98.5167 0.124821 99.5928 0.355325 100.578 0.814171C101.563 1.27302 102.432 1.94836 103.12 2.78985L111.57 12.8599C111.792 13.147 112.072 13.3831 112.393 13.5522C112.714 13.7213 113.068 13.8194 113.43 13.8399Z" fill="black"/>
<path d="M121.16 18.5201V0.140137H128.57C129.613 0.162074 130.639 0.41042 131.577 0.867985C132.514 1.32555 133.341 1.9814 134 2.79014L136.27 5.49014L147.2 18.4901H141.11L133.44 9.35014L130.44 5.76014C130.214 5.46851 129.929 5.22845 129.603 5.05599C129.277 4.88354 128.918 4.78267 128.55 4.76014H125.8V18.5201H121.16Z" fill="black"/>
<path d="M60.0163 25.6499V22.1279H61.2064C61.4827 22.1279 61.7086 22.1777 61.884 22.2775C62.0606 22.3761 62.1913 22.5096 62.2761 22.6782C62.3609 22.8467 62.4034 23.0347 62.4034 23.2423C62.4034 23.4498 62.3609 23.6384 62.2761 23.8081C62.1924 23.9777 62.0628 24.113 61.8874 24.2139C61.712 24.3137 61.4873 24.3635 61.2133 24.3635H60.3603V23.9852H61.1995C61.3887 23.9852 61.5406 23.9525 61.6553 23.8872C61.7699 23.8218 61.853 23.7335 61.9046 23.6223C61.9574 23.51 61.9837 23.3833 61.9837 23.2423C61.9837 23.1012 61.9574 22.9751 61.9046 22.8639C61.853 22.7527 61.7693 22.6656 61.6535 22.6025C61.5377 22.5383 61.3841 22.5062 61.1927 22.5062H60.4428V25.6499H60.0163ZM63.0904 25.6499V22.1279H64.2805C64.5556 22.1279 64.7815 22.1749 64.958 22.2689C65.1346 22.3617 65.2653 22.4896 65.3501 22.6524C65.435 22.8152 65.4774 23.0003 65.4774 23.2079C65.4774 23.4154 65.435 23.5994 65.3501 23.7599C65.2653 23.9204 65.1352 24.0465 64.9598 24.1382C64.7843 24.2288 64.5602 24.2741 64.2873 24.2741H63.3243V23.8889H64.2736C64.4616 23.8889 64.6129 23.8614 64.7276 23.8063C64.8434 23.7513 64.9271 23.6733 64.9787 23.5724C65.0314 23.4704 65.0578 23.3489 65.0578 23.2079C65.0578 23.0668 65.0314 22.9436 64.9787 22.8381C64.9259 22.7326 64.8417 22.6512 64.7259 22.5939C64.6101 22.5354 64.457 22.5062 64.2667 22.5062H63.5169V25.6499H63.0904ZM64.7482 24.0677L65.615 25.6499H65.1197L64.2667 24.0677H64.7482ZM69.1598 23.8889C69.1598 24.2603 69.0927 24.5814 68.9586 24.8519C68.8245 25.1225 68.6405 25.3312 68.4066 25.4779C68.1727 25.6247 67.9055 25.6981 67.6052 25.6981C67.3048 25.6981 67.0376 25.6247 66.8038 25.4779C66.5699 25.3312 66.3859 25.1225 66.2517 24.8519C66.1176 24.5814 66.0505 24.2603 66.0505 23.8889C66.0505 23.5174 66.1176 23.1964 66.2517 22.9258C66.3859 22.6552 66.5699 22.4466 66.8038 22.2998C67.0376 22.1531 67.3048 22.0797 67.6052 22.0797C67.9055 22.0797 68.1727 22.1531 68.4066 22.2998C68.6405 22.4466 68.8245 22.6552 68.9586 22.9258C69.0927 23.1964 69.1598 23.5174 69.1598 23.8889ZM68.7471 23.8889C68.7471 23.5839 68.6961 23.3265 68.594 23.1167C68.4931 22.9069 68.3561 22.7481 68.183 22.6403C68.011 22.5326 67.8184 22.4787 67.6052 22.4787C67.3919 22.4787 67.1987 22.5326 67.0256 22.6403C66.8536 22.7481 66.7166 22.9069 66.6146 23.1167C66.5137 23.3265 66.4633 23.5839 66.4633 23.8889C66.4633 24.1938 66.5137 24.4512 66.6146 24.661C66.7166 24.8709 66.8536 25.0296 67.0256 25.1374C67.1987 25.2452 67.3919 25.2991 67.6052 25.2991C67.8184 25.2991 68.011 25.2452 68.183 25.1374C68.3561 25.0296 68.4931 24.8709 68.594 24.661C68.6961 24.4512 68.7471 24.1938 68.7471 23.8889ZM72.2846 23.2285C72.2468 23.1127 72.1969 23.0089 72.135 22.9172C72.0742 22.8244 72.0014 22.7452 71.9166 22.6799C71.8329 22.6145 71.7377 22.5647 71.6311 22.5303C71.5245 22.4959 71.4075 22.4787 71.2803 22.4787C71.0716 22.4787 70.8819 22.5326 70.711 22.6403C70.5402 22.7481 70.4043 22.9069 70.3035 23.1167C70.2026 23.3265 70.1521 23.5839 70.1521 23.8889C70.1521 24.1938 70.2031 24.4512 70.3052 24.661C70.4072 24.8709 70.5454 25.0296 70.7196 25.1374C70.8939 25.2452 71.09 25.2991 71.3078 25.2991C71.5096 25.2991 71.6873 25.2561 71.8409 25.1701C71.9957 25.083 72.1161 24.9603 72.2021 24.8021C72.2892 24.6427 72.3328 24.4552 72.3328 24.2397L72.4635 24.2672H71.4041V23.8889H72.7455V24.2672C72.7455 24.5573 72.6836 24.8095 72.5598 25.0239C72.4371 25.2383 72.2674 25.4046 72.0507 25.5226C71.8352 25.6396 71.5875 25.6981 71.3078 25.6981C70.9959 25.6981 70.7219 25.6247 70.4857 25.4779C70.2507 25.3312 70.0673 25.1225 69.9354 24.8519C69.8047 24.5814 69.7394 24.2603 69.7394 23.8889C69.7394 23.6103 69.7766 23.3598 69.8512 23.1373C69.9268 22.9138 70.0335 22.7235 70.171 22.5664C70.3086 22.4093 70.4714 22.2889 70.6594 22.2052C70.8475 22.1215 71.0544 22.0797 71.2803 22.0797C71.466 22.0797 71.6391 22.1078 71.7996 22.164C71.9613 22.219 72.1052 22.2975 72.2313 22.3996C72.3586 22.5005 72.4646 22.6214 72.5494 22.7624C72.6343 22.9023 72.6928 23.0577 72.7249 23.2285H72.2846ZM73.476 25.6499V22.1279H74.666C74.9412 22.1279 75.167 22.1749 75.3436 22.2689C75.5202 22.3617 75.6509 22.4896 75.7357 22.6524C75.8206 22.8152 75.863 23.0003 75.863 23.2079C75.863 23.4154 75.8206 23.5994 75.7357 23.7599C75.6509 23.9204 75.5207 24.0465 75.3453 24.1382C75.1699 24.2288 74.9458 24.2741 74.6729 24.2741H73.7098V23.8889H74.6591C74.8472 23.8889 74.9985 23.8614 75.1132 23.8063C75.229 23.7513 75.3127 23.6733 75.3642 23.5724C75.417 23.4704 75.4434 23.3489 75.4434 23.2079C75.4434 23.0668 75.417 22.9436 75.3642 22.8381C75.3115 22.7326 75.2272 22.6512 75.1114 22.5939C74.9956 22.5354 74.8426 22.5062 74.6523 22.5062H73.9025V25.6499H73.476ZM75.1338 24.0677L76.0006 25.6499H75.5053L74.6523 24.0677H75.1338ZM76.7181 25.6499H76.271L77.5642 22.1279H78.0045L79.2977 25.6499H78.8506L77.7981 22.6851H77.7706L76.7181 25.6499ZM76.8832 24.2741H78.6855V24.6524H76.8832V24.2741ZM79.8463 22.1279H80.3554L81.5523 25.0514H81.5936L82.7906 22.1279H83.2996V25.6499H82.9006V22.974H82.8662L81.7656 25.6499H81.3804L80.2797 22.974H80.2453V25.6499H79.8463V22.1279ZM84.1547 22.1279H84.6638L85.8607 25.0514H85.902L87.099 22.1279H87.608V25.6499H87.209V22.974H87.1746L86.074 25.6499H85.6888L84.5881 22.974H84.5537V25.6499H84.1547V22.1279ZM88.4631 25.6499V22.1279H90.5888V22.5062H88.8896V23.6963H90.4787V24.0746H88.8896V25.2716H90.6163V25.6499H88.4631Z" fill="black"/>
</svg>
