<svg width="26" height="33" viewBox="0 0 26 33" fill="none" xmlns="http://www.w3.org/2000/svg">
<path d="M13.16 32.1C10.16 32.49 11.9 30.91 11.36 29.1C11.1083 28.9192 10.8365 28.7682 10.55 28.6501C9.94997 28.3101 9.86997 27.6501 9.44997 27.1101C8.42876 26.9801 7.39898 26.9299 6.36997 26.9601C6.33423 27.2909 6.22038 27.6084 6.03783 27.8866C5.85527 28.1648 5.60923 28.3956 5.31997 28.5601H4.88997C4.88997 29.7501 5.99997 31.98 3.78997 31.13C3.51997 30.85 3.65997 30.3501 3.63997 29.9801C3.45478 29.453 3.42356 28.8842 3.54997 28.3401C3.53863 28.2892 3.51421 28.2421 3.47914 28.2035C3.44407 28.165 3.39955 28.1362 3.34997 28.1201C1.80997 28.1701 1.27997 26.8101 0.639971 25.6801C0.529971 25.0301 1.06997 24.1601 0.639971 23.6801C0.639971 22.9301 1.19997 22.1801 1.22997 21.4001C1.22997 20.9201 0.409972 20.86 0.539972 20.32C0.619972 18.07 0.629973 15.7501 1.89997 13.8101C2.95997 13.5301 1.69997 11.1001 2.32997 10.0501C2.92305 8.95308 3.14744 7.6944 2.96997 6.46006C3.70997 3.29006 5.96997 0.370059 9.63997 1.52006C10.46 1.78006 10.97 2.52007 11.73 2.87007C13.02 2.82007 14.43 2.63005 15.73 2.54005C17.42 2.85005 18.03 1.06005 19.53 0.760049C20.5483 0.589687 21.5943 0.729335 22.5323 1.16087C23.4702 1.5924 24.2568 2.29591 24.79 3.18006C25.42 5.10006 24.99 8.12004 23.31 9.47004C23.61 10.67 22.46 11.63 22.31 12.79C21.87 13.54 22.17 14.5701 21.57 15.1801L21.49 15.13L20.99 16.94C21.83 17.24 21.29 18.1701 21.84 18.7001C22.03 19.0401 22.21 19.3701 22.38 19.7001C22.3007 19.8947 22.2702 20.1058 22.2911 20.315C22.312 20.5241 22.3837 20.725 22.5 20.9001V20.82C22.809 20.8519 23.0997 20.9816 23.33 21.19C23.23 21.87 23.57 23.07 22.64 23.19V24.19C22.89 24.44 23.31 24.5201 23.32 24.8701C23.15 25.4601 23.4 26.61 22.56 26.72C22.11 26.52 21.93 27.1901 21.73 27.4801C21.36 28.8201 22.91 31.8501 20.43 31.3701C20.3246 30.2329 20.3649 29.087 20.55 27.9601L19 28.4201C19.27 29.8901 18.8 29.8301 17.51 29.5501L17.43 28.72C15.97 28.8 14.62 29.14 13.18 29.29L13.16 32.1ZM9.99997 16.5C10.54 13.63 13.36 14.5 12.4 11.5C11.62 11.16 12.05 9.96007 11.32 9.59007C9.01997 8.42007 9.07997 5.08006 6.86997 3.74006C6.12997 5.28006 5.67997 7.19005 4.21997 8.20005C4.19614 9.63692 3.85464 11.0507 3.21997 12.3401C4.05688 12.6251 4.80324 13.127 5.38295 13.7946C5.96266 14.4621 6.355 15.2715 6.51997 16.1401C7.49997 16.5701 8.79997 16.36 9.99997 16.5ZM20.05 14.4201C20.6393 13.1077 20.9784 11.6969 21.05 10.26C21.55 9.20005 21.33 9.04005 20.79 8.10005C20.62 7.05005 20.42 7.02005 19.35 7.10005C18.7553 7.66196 18.0551 8.10042 17.29 8.39005C17.2012 8.5396 17.1465 8.70692 17.13 8.88004C17.13 9.10005 16.86 9.31006 17.13 9.55006C17.1917 9.61832 17.224 9.70813 17.22 9.80006C17.2823 10.4075 17.2314 11.0212 17.07 11.6101C16.76 11.8701 16.88 12.1901 16.86 12.4801C17.5195 12.6786 18.1273 13.02 18.64 13.4801C19.12 13.8001 19.63 13.7901 20.05 14.4201ZM15.37 7.15006C13.53 7.32006 13.44 7.03005 13.18 8.92005C14.18 9.92005 13.75 11.4001 14.13 12.6701C15.13 12.6701 14.68 11.6701 14.56 11.1101C14.65 9.67006 15.73 8.61005 15.37 7.14005V7.15006ZM6.62997 22.2101V23.4201C7.54692 23.5633 8.4722 23.6468 9.39997 23.6701L9.52997 22.0501C8.56072 22.0047 7.58937 22.055 6.62997 22.2001V22.2101ZM6.71997 19.97C7.47694 20.3829 8.32782 20.5931 9.18997 20.5801C9.93997 20.5201 9.44997 19.5201 9.57997 18.9601H6.71997V19.97Z" fill="#191919"/>
</svg>
