<svg id="Layer_1" data-name="Layer 1" xmlns="http://www.w3.org/2000/svg" viewBox="0 0 110 46"><defs><style>.cls-1{fill:#191919;}</style></defs><path class="cls-1" d="M11.84,21.53l.07.57s0,0,0,.06l2.22,1.43a.6.6,0,0,0,.32.1c2,.08,20.4.77,26.59.86,6.52.09,23.65,0,24.43-.44h0l.66-.58h0l4.69-.27s0,0,0,0l.94.95h-.25a.09.09,0,0,0-.07.09l0,1.05a.07.07,0,0,0,.07.07l4.94-.22a.08.08,0,0,0,0-.13l-1.79-1.93s0,0,0,0l-.11-1.42s0-.08-.07-.07c-1,.07-14.3.93-20.73.91-6.7,0-23-.33-28.16-.55-4.9-.2-13-.5-13.87-.53A.07.07,0,0,0,11.84,21.53Z"/><path class="cls-1" d="M58.38,26.09c-11.08.34-35.21.21-44.31-.77a11.54,11.54,0,0,1-6.49-4.18,8.73,8.73,0,0,1,2.27.66c.94.65,3.56,2.25,4.44,2.32,15,1.34,42.4,1.28,56.84.2l.06,1.14Z"/><path class="cls-1" d="M75.29,21.34,75.42,23a.15.15,0,0,0,0,.11l1.94,2.09a0,0,0,0,1,0,0l.07.11a.14.14,0,0,0,.11.06h.29a.14.14,0,0,1,.12.07l2.24,4.21a.13.13,0,0,0,.19.05l.15-.11a.19.19,0,0,0,0-.21l-.84-1.8a.17.17,0,0,1,0-.2l.51-.36a.19.19,0,0,0,.07-.12l0-.85a.13.13,0,0,1,.08-.13l1.54-.79h0l8.32-.62a.11.11,0,0,0,.09-.05l.6-.71a.12.12,0,0,1,.08,0l5.45-.37a.11.11,0,0,1,.08,0l.77.6a.11.11,0,0,0,.08,0l4.09-.3a.21.21,0,0,0,.1-.06l.61-.91a.17.17,0,0,0,0-.18l-.92-1.71a.12.12,0,0,0-.1-.07L98,20.41s0,0,0,0l-16.33,1.1h0l-1-.26h0l-.84,0a.16.16,0,0,0-.14.13c0,.13,0,.3-.12.26s-.1-.15-.11-.24-.08-.14-.14-.13h0a.13.13,0,0,0-.13.14c0,.11,0,.25-.09.25s-.1-.13-.11-.24a.14.14,0,0,0-.14-.13h0c-.08,0-.13.07-.13.16s0,.23-.1.23-.12-.11-.13-.22a.15.15,0,0,0-.14-.15l-.4,0a.11.11,0,0,1-.09,0L77.63,21a.11.11,0,0,0-.09,0l-1.43.06h0l-.12.05h0l-.5,0a.15.15,0,0,0-.12.17Z"/></svg>