<svg id="Layer_1" data-name="Layer 1" xmlns="http://www.w3.org/2000/svg" viewBox="0 0 50 50"><defs><style>.cls-1{fill:#191919;}</style></defs><path class="cls-1" d="M33,28.48c-.15,3.82-.68,7.58-.69,11.37-3.32.67-7.12.33-10.58.59-1.38-.21-3.33.2-4.41-.58-.12-4.59,1.05-9.12.87-13.74-.73.51-.22,1.66-.38,2.45-.1,1.75-1,3.36-1.27,5.12-.49,2.29-1.07,4.52-1.74,6.73-.05.93-1.2.43-1.8.54-1.34.06-.7-1.52-.76-2.34-.55-7.66,2.08-15.6,3-23.21.5-4.25,3.72-5.21,7-6.41,1.63.08,2,1.17,3.69,1,.84,0,3-1.33,3.83-.92,2.18,1.09,5.09,1.66,6.31,4a47.37,47.37,0,0,1,1,21.12c-.24,1.16-.31,6.67-1.33,6.74-.77.08-2.08-.09-2.29-1-.26-3.81.36-11-.34-14.72C33.11,25.26,33,28.48,33,28.48Z"/></svg>