<svg id="Layer_1" data-name="Layer 1" xmlns="http://www.w3.org/2000/svg" viewBox="0 0 50 50"><defs><style>.cls-1{fill:#191919;}</style></defs><path class="cls-1" d="M11.86,18.84c.3,1.12.43,2.28.64,3.42A1.77,1.77,0,0,0,12.21,24c.12.21.35,0,.5.09s.37.48,0,.43c.57,1.63-2.23,1.92-2.38.5.08-.33-.22-1,.34-.92.09,0,.1,0,.12-.11-.1-2.56-.17-6.23,2.59-7.46.17-.08.06-.2,0-.34-.12-.37.48-.54.76-.53s.2.2.35.18-.11-.18,0-.3.26.11.32,0c.07-.31.31-.44.58-.57,1.64,0,2.89-1.79,4.44-2.35.91-.26,1.85.31,2.77.32,1.42.14,2.88,0,4.21.59,1.17.58,2.24-.06,3.28-.55a17.17,17.17,0,0,1,5.06-1c.1.25.49.3.71.44,1.6,1.12,1,0,1.49-1.24.07-.39,1.12.13,1.09.33a25,25,0,0,0-1.05,5.34,1.79,1.79,0,0,1,1.13.48c.18.37.41,1.08,0,1.36a4.25,4.25,0,0,0,.13,2,.75.75,0,0,1-.34.73c-.14.09,0,.22.28.46a8.83,8.83,0,0,1,.87,6.38c-.3,2.53-1.4,4.83-2.06,7.27-.48,1.38-.28,2-1.81,2.47-2.49,1.74-5.68.73-8.53.81-3-.25-6.81.47-8.86-2.21-1.3-2.49-1.6-5.39-2.13-8.13-.65-3-.25-5.93,2.32-7.76.31-2.1,1.28-5.95-2.08-3.36A26.17,26.17,0,0,0,11.86,18.84ZM29.27,20c.17-.38-.36-.54-.62-.69-.3.11-.46,1.37.17,1,.05-.2.31-.24.45-.37-.65,1.18-1.37.65-.94-.56.42-.9,1.12-1.69,1.6-2.63a10.62,10.62,0,0,1,4.71-4.33c-1,.36-2.1.6-3.15.9a5.74,5.74,0,0,1-2.06.93c-.84.21-1.59-.27-2.38-.37a12.48,12.48,0,0,1-3.78.54c-3.81-.56-2.93-3-5.69,1.11,1.86.67,2.45,3,2.41,4.79,0,.27.44.33.59.55.46.43.73,1.2,1.46,1.16a87.74,87.74,0,0,0,11.35.23c.74-.14,1.14-1,1.89-1.19s.27-1.64.55-2.33c.11,0,.15,0,.17-.14.06-.47.42-.89.39-1.37a1.66,1.66,0,0,1-.3-.5c-.12-.14-.3-.27-.35-.43,0-.33.13-.68.1-1-.24-.21,0-.29.16-.33,0-.09-.15-.07-.09-.21a5.37,5.37,0,0,1,0-1.65,11.17,11.17,0,0,1-2.4.93c-.69.32-1.95.21-2.11,1.14-.33,1.56-1.33,3-1.7,4.51A.4.4,0,0,1,29.27,20ZM11.33,25.32h0c.3,0,1.32-.06.93-.5-.37.07-.9-.07-1.2.14C11,25.19,11.05,25.39,11.33,25.32Zm3.42-9a.14.14,0,0,0,.27,0C15,16.09,14.82,16.11,14.75,16.29Zm.47-.71.15.3C15.52,15.83,15.33,15.46,15.22,15.58Zm-2.49,8.87c-.05,0-.08-.08-.1,0S12.68,24.51,12.73,24.45Zm2.81-7.67v0h0Zm-5,8.16.06-.07C10.56,24.85,10.55,24.86,10.56,24.94Zm4.55-9.07v0h.08v0ZM36,14.54h0l0,0h0ZM15.29,16.8v0h0v0Zm.44,0v0S15.77,16.82,15.73,16.82Zm-3.51,7.55s0,0,0,.05S12.23,24.39,12.22,24.37Z"/><path class="cls-1" d="M36,14.54l0,0h0l0,0Z"/><path class="cls-1" d="M14.77,16l-.13.46.4.5.87,0c.34-.53-.07-1.09-.26-1.54l-.4-.14Z"/><path class="cls-1" d="M10.53,24.77l0,.23c.26.27.31-.14.35-.28Z"/><path class="cls-1" d="M12.1,24.32v.27a1.82,1.82,0,0,0,.7-.14l-.13-.13Z"/><polygon class="cls-1" points="35.91 14.5 35.96 14.64 36.05 14.54 35.91 14.5"/></svg>