<svg id="Layer_1" data-name="Layer 1" xmlns="http://www.w3.org/2000/svg" viewBox="0 0 50 50"><defs><style>.cls-1{fill:#191919;}</style></defs><path class="cls-1" d="M35.52,17.82c-.26-1-2.46-2.61-3.37-3.09-.46-.33-.86-.86-.58-1.34.14-.23-.58-.83-.83-1s-.68.29-.91.14c-.31-.33.08-1.19-.28-1.45s-1.39.14-1.52-.18a6.79,6.79,0,0,1-.2-.66,1.33,1.33,0,0,0-.75-.93c-1.92-.56-5.28-.5-6.5,1.33A2.16,2.16,0,0,0,20.42,12c0,.17-.23,0-.48,0-.77.14-1.35,1.08-1.56,1.77-.08.29.4.8,0,.93-4.33,2.24-4.64,4.47-4.73,9-.2,3.28-.52,6.56-.83,9.84-.12,1.17-.19,2.36-.32,3.53a10.89,10.89,0,0,0-.1,1.89,1.52,1.52,0,0,0,1,.47,8.19,8.19,0,0,0,2,0c.28-.08.77,0,.78-.38.71-3.1,1-6.32,1.47-9.43a28.44,28.44,0,0,1-.13,3.32c-.1,1.39-.12,2.79-.34,4.17,0,.38-.38,3.09.06,3.17,1.74.91,4.08.56,6,.72a16.59,16.59,0,0,0,6.44-.54c.51-.16,1.63.74,2.11.5.15-.07,0-.93-.2-1.76a3.59,3.59,0,0,0,.63.46,5.3,5.3,0,0,0,1.66.49c.26,0,1.21.18,1.33,0A24.12,24.12,0,0,0,36.5,36.8a31.13,31.13,0,0,0,1.09-7.3A56.66,56.66,0,0,0,35.52,17.82ZM32,37.08c-.13.58-.21,1.17-.33,1.75a10.92,10.92,0,0,1-.24-1.26c-.08-2.53-.33-5-.28-7.57a43.56,43.56,0,0,1,.47-4.84h0C33.3,30,33,32.2,32,37.08Z"/></svg>