<svg width="9" height="84" viewBox="0 0 9 84" fill="none" xmlns="http://www.w3.org/2000/svg">
<path d="M7.34018 3.81689L6.84018 3.8869C6.83257 3.88251 6.82395 3.88019 6.81517 3.88019C6.8064 3.88019 6.79777 3.88251 6.79017 3.8869L5.50018 5.8869C5.4495 5.97228 5.41873 6.06796 5.41018 6.16687C5.35018 7.88687 4.73017 24.1669 4.65017 29.5969C4.56017 35.3369 4.65017 50.4269 5.04017 51.1169L5.56017 51.6869L5.80017 55.8269L4.95017 56.6569V56.4269C4.9492 56.4178 4.94619 56.4091 4.94136 56.4014C4.93654 56.3937 4.93003 56.3873 4.92232 56.3824C4.91462 56.3776 4.90592 56.3746 4.89689 56.3737C4.88786 56.3727 4.87872 56.3738 4.87017 56.3769H3.94017C3.92322 56.3767 3.90678 56.3827 3.8939 56.3937C3.88103 56.4048 3.8726 56.4201 3.87017 56.4369L4.06017 60.7869C4.06758 60.7972 4.07734 60.8056 4.08864 60.8114C4.09995 60.8172 4.11247 60.8203 4.12518 60.8203C4.13788 60.8203 4.1504 60.8172 4.16171 60.8114C4.17301 60.8056 4.18277 60.7972 4.19017 60.7869L5.91018 59.2068H5.96017L7.22017 59.0969C7.23713 59.097 7.25357 59.0911 7.26645 59.08C7.27932 59.069 7.28775 59.0536 7.29017 59.0369C7.23017 58.1269 6.45017 46.4368 6.47017 40.7668C6.47017 34.8668 6.77017 20.5369 6.96017 15.9669C7.14017 11.6469 7.41018 4.50688 7.43018 3.73688C7.43018 3.84688 7.39018 3.81689 7.34018 3.81689Z" fill="black"/>
<path d="M3.27996 44.8269C2.96996 35.0669 3.08996 13.8269 3.96996 5.8269C4.51563 3.54424 5.83773 1.52217 7.70996 0.106873C7.60497 0.798428 7.40298 1.47173 7.10996 2.10687C6.23248 3.30197 5.53505 4.6193 5.03996 6.01685C3.83996 19.2468 3.88996 43.3769 4.86996 56.1069H3.86996C3.86996 56.1069 3.27996 44.8869 3.27996 44.8269Z" fill="black"/>
<path d="M7.52026 59.7269L6.04025 59.8369C6.01121 59.8261 5.9793 59.8261 5.95025 59.8369L4.08025 61.5469L3.98026 61.6069C3.96189 61.6162 3.94652 61.6306 3.93591 61.6483C3.9253 61.6659 3.91988 61.6862 3.92025 61.7068V61.9568C3.9186 61.9783 3.91123 61.9988 3.89892 62.0164C3.88661 62.034 3.8698 62.048 3.85025 62.0569L0.0902557 64.0569C0.020256 64.0569 0.000252724 64.1669 0.0402527 64.2169L0.140255 64.3569C0.168774 64.3746 0.201681 64.384 0.235256 64.384C0.268832 64.384 0.301735 64.3746 0.330254 64.3569L1.93026 63.6169C1.95777 63.5966 1.99106 63.5856 2.02525 63.5856C2.05945 63.5856 2.09274 63.5966 2.12025 63.6169L2.44025 64.0669C2.45267 64.0848 2.46907 64.0994 2.48817 64.1099C2.50726 64.1203 2.52852 64.1261 2.55025 64.1269H3.31025C3.33289 64.1288 3.35474 64.1361 3.3739 64.1483C3.39307 64.1605 3.40897 64.1772 3.42025 64.1969L4.13025 65.5569L4.68026 72.8869C4.67487 72.9133 4.67487 72.9405 4.68026 72.9669L5.32026 73.4869C5.32941 73.5128 5.32941 73.541 5.32026 73.5669L5.65025 78.3669C5.65788 78.3896 5.65788 78.4142 5.65025 78.4369L5.11026 79.1069C5.10111 79.1328 5.10111 79.161 5.11026 79.1869L5.38025 82.7869C5.37391 82.801 5.37063 82.8163 5.37063 82.8318C5.37063 82.8474 5.37391 82.8627 5.38025 82.8769L6.20025 83.4169C6.2242 83.432 6.25194 83.44 6.28025 83.44C6.30857 83.44 6.33631 83.432 6.36026 83.4169L7.88025 82.6169C7.91452 82.5973 7.93967 82.5649 7.95025 82.5269L8.26025 79.5769L7.26025 65.1769L7.50026 64.3369V63.5969C7.49832 63.5673 7.48636 63.5393 7.46636 63.5175C7.44636 63.4957 7.41951 63.4814 7.39025 63.4769C7.27025 63.4769 7.12025 63.4769 7.15025 63.3669C7.18025 63.2569 7.29025 63.2768 7.37025 63.2668C7.40131 63.2645 7.43051 63.2512 7.45254 63.2292C7.47456 63.2072 7.48794 63.1779 7.49025 63.1469C7.48544 63.1159 7.46965 63.0878 7.44577 63.0676C7.4219 63.0474 7.39153 63.0365 7.36026 63.0369C7.26026 63.0369 7.14025 63.0368 7.14025 62.9568C7.14025 62.8768 7.25025 62.8669 7.35025 62.8569C7.38131 62.8546 7.41051 62.8412 7.43254 62.8192C7.45456 62.7971 7.46794 62.7679 7.47025 62.7369C7.46527 62.7015 7.44697 62.6694 7.41908 62.6471C7.3912 62.6248 7.35585 62.614 7.32026 62.6169C7.23026 62.6169 7.12025 62.6169 7.12025 62.5269C7.12025 62.4369 7.22025 62.4269 7.31025 62.4169C7.32734 62.4182 7.34452 62.4162 7.36082 62.4109C7.37711 62.4056 7.3922 62.3971 7.40521 62.386C7.41822 62.3748 7.4289 62.3612 7.43663 62.3459C7.44436 62.3307 7.44899 62.314 7.45025 62.2969V61.9469C7.43858 61.918 7.43858 61.8857 7.45025 61.8569L7.64025 61.6869C7.65193 61.658 7.65193 61.6257 7.64025 61.5969V60.3369L7.59026 60.2369V59.8069C7.5891 59.7901 7.58445 59.7738 7.5766 59.759C7.56875 59.7441 7.55787 59.7311 7.54468 59.7208C7.53149 59.7104 7.51627 59.7029 7.5 59.6988C7.48374 59.6947 7.46679 59.6941 7.45025 59.6969L7.52026 59.7269Z" fill="black"/>
</svg>
