<svg id="Layer_1" data-name="Layer 1" xmlns="http://www.w3.org/2000/svg" viewBox="0 0 50 50"><defs><style>.cls-1{fill:#191919;}</style></defs><path class="cls-1" d="M31.28,26.63c.51-4.56-1.08-1.68,4.84-4.85.41-.22.77-.53,1.16-.79.19-.17.66-.23.5-.56-1.14-2.21-2.32-4.4-3.51-6.58a4.67,4.67,0,0,0-1.76-1.6c-1.15-.9-2.32-1.76-3.53-2.59A5.85,5.85,0,0,0,27.89,9c-.06,0-1.79.56-2.62.67a8.26,8.26,0,0,1-2.62-.14c-.4-.07-.79-.17-1.19-.26a.51.51,0,0,0-.56.21,8.18,8.18,0,0,0-.63.68,8.75,8.75,0,0,1-1.56,1.22A33.06,33.06,0,0,0,15.65,13a5.71,5.71,0,0,0-.68.63c-.42.37-.48.92-.7,1.4-.88,2-1.31,4.19-2.08,6.24a.28.28,0,0,0,.05.24A16.7,16.7,0,0,0,15,23.24a2.69,2.69,0,0,0,2.18.22c.1,0,.14,0,.14.12,0,1.15.11,2.29.1,3.44,0,1.94-.51,3.9-.16,5.84a4.19,4.19,0,0,1-.1,1.46,5.44,5.44,0,0,0,0,1.8c0,1.08-.24,2.18-.28,3.27,0,.32,0,.48.31.59a19.46,19.46,0,0,0,6.94,1,18.9,18.9,0,0,0,5.41-.38c.54-.1,1.07-.25,1.59-.39.31-.12.87-.17.8-.63a15.37,15.37,0,0,1-.33-2.92,3.56,3.56,0,0,0,.08-1.34C31.67,32.36,31.29,26.64,31.28,26.63Z"/><path class="cls-1" d="M34.91,13.83s0,0,0,0Z"/></svg>