<svg id="Layer_1" data-name="Layer 1" xmlns="http://www.w3.org/2000/svg" viewBox="0 0 50 50"><defs><style>.cls-1{fill:#191919;}</style></defs><path class="cls-1" d="M25.39,41.66c-3.05.42-1.3-1.26-1.86-3.17A3.65,3.65,0,0,0,22.7,38c-.62-.36-.7-1.08-1.14-1.63a18.66,18.66,0,0,0-3.17-.16,2.22,2.22,0,0,1-1.09,1.69l-.45,0c0,1.26,1.15,3.64-1.13,2.73-.28-.29-.13-.83-.16-1.22a3.2,3.2,0,0,1-.09-1.74.34.34,0,0,0-.21-.24c-1.58.07-2.13-1.38-2.79-2.57-.11-.7.44-1.63,0-2.18,0-.79.58-1.58.61-2.41,0-.51-.84-.57-.71-1.15.09-2.39.1-4.84,1.41-6.9,1.09-.3-.21-2.87.44-4a6.29,6.29,0,0,0,.66-3.81C15.6,11,18,8,21.73,9.17c.84.28,1.37,1.06,2.16,1.43,1.33-.06,2.78-.26,4.15-.36,1.75.34,2.37-1.56,3.92-1.88a5.27,5.27,0,0,1,5.44,2.56c.64,2.05.2,5.25-1.53,6.67.3,1.28-.88,2.3-1,3.53-.46.79-.15,1.88-.77,2.53l-.08,0-.52,1.92c.87.32.31,1.3.88,1.87.2.35.38.71.56,1.07A1.42,1.42,0,0,0,35,29.74l0-.09a1.59,1.59,0,0,1,.86.4c-.1.72.25,2-.72,2.17v1.09c.27.26.69.35.71.71-.18.63.08,1.85-.79,2-.46-.21-.65.51-.86.81-.38,1.42,1.23,4.64-1.34,4.12a14.55,14.55,0,0,1,.13-3.61l-1.66.5c.29,1.56-.2,1.49-1.54,1.2l-.08-.88c-1.5.08-2.9.45-4.39.6ZM22.1,25.11c.56-3,3.47-2.12,2.48-5.26-.81-.36-.37-1.64-1.11-2-2.39-1.24-2.32-4.79-4.6-6.2-.77,1.63-1.23,3.66-2.74,4.72a10.59,10.59,0,0,1-1.06,4.4,5.29,5.29,0,0,1,3.41,4C19.55,25.19,20.9,25,22.1,25.11ZM32.51,22.9c.44-1.45,1.11-2.95,1-4.41.52-1.12.29-1.3-.27-2.29-.17-1.12-.38-1.15-1.49-1.09a6.29,6.29,0,0,1-2.12,1.36,1.32,1.32,0,0,0-.17.52c0,.24-.27.46,0,.71a.42.42,0,0,1,.09.27,5.33,5.33,0,0,1-.15,1.92c-.32.28-.2.61-.22.92a4.66,4.66,0,0,1,1.84,1C31.54,22.25,32.07,22.24,32.51,22.9Zm-4.83-7.71c-1.9.18-2-.12-2.26,1.87,1,1.08.58,2.63,1,4,1,0,.57-1,.45-1.65C26.93,17.87,28.05,16.75,27.68,15.19Zm-9,16v1.24a21.13,21.13,0,0,0,2.86.27L21.64,31A13.6,13.6,0,0,0,18.65,31.17Zm.09-2.38a5.1,5.1,0,0,0,2.56.64c.77-.06.27-1.13.4-1.71h-3Z"/></svg>