<svg width="27" height="33" viewBox="0 0 27 33" fill="none" xmlns="http://www.w3.org/2000/svg">
<path d="M21.37 19.9899C21.22 23.7799 20.7 27.5099 20.69 31.2699C17.39 31.9399 13.62 31.5899 10.18 31.8599C8.82001 31.6499 6.88001 32.0599 5.81001 31.2799C5.69001 26.7199 6.81001 22.2299 6.67001 17.6499C5.95001 18.1499 6.46001 19.2899 6.29001 20.0799C6.20001 21.8199 5.29001 23.4099 5.03001 25.1599C4.54001 27.4299 3.97001 29.6499 3.31001 31.8399C3.26001 32.7599 2.12002 32.2699 1.52002 32.3699C0.190019 32.4299 0.830019 30.8699 0.770019 30.0499C0.220019 22.4499 2.83002 14.5699 3.72002 7.04993C4.22002 2.82993 7.41002 1.86993 10.72 0.679932C12.34 0.759932 12.72 1.83993 14.39 1.67993C15.22 1.67993 17.39 0.349949 18.18 0.759949C20.35 1.84995 23.23 2.40992 24.44 4.69992C26.361 11.5336 26.7029 18.7146 25.44 25.6999C25.2 26.8499 25.13 32.3199 24.12 32.3999C23.36 32.4699 22.06 32.2999 21.84 31.3999C21.59 27.6199 22.2 20.5199 21.51 16.7899C21.46 16.7899 21.39 19.9899 21.37 19.9899Z" fill="#191919"/>
</svg>
