<svg width="18" height="34" viewBox="0 0 18 34" fill="none" xmlns="http://www.w3.org/2000/svg">
<path d="M0.230027 16.52C0.450027 12.25 0.370028 7.70998 1.59003 3.62998C2.15003 2.77998 1.79003 1.48999 2.59003 0.889988C6.28257 0.368687 10.0192 0.231253 13.74 0.479954C15.61 0.669954 14.83 1.79997 15.01 2.99997C16.27 5.35997 15.79 8.20997 16.61 10.68C17.15 12.4 16.88 14.3699 17.44 16.0899C17.56 17.5999 16.6 18.99 17.25 20.44C17.1679 21.6306 17.2828 22.8267 17.59 23.98C17.6936 26.1329 17.5763 28.2909 17.24 30.42C17.24 30.67 17.33 31.07 17.24 31.14C16.85 31.34 17.24 31.5699 17.14 31.7799C17.2925 32.3231 17.2536 32.9021 17.03 33.42C16.49 34.24 15.26 33.28 14.46 33.33C14.14 33.24 13.26 33.5399 13.31 33.0299C13.11 31.8399 13.6 30.63 13.01 29.48C12.2 28.11 12.46 26.39 12.13 24.93C11.13 23.13 11.7 20.83 10.38 19.12C10.26 18.86 10.48 18.3299 9.78003 18.5299C9.13003 17.9799 10.04 16.63 9.20003 16C6.65003 14.67 7.71003 23.7499 7.44003 25.1599C7.44003 26.7599 6.57003 28.0699 6.39003 29.5899C6.31003 30.5299 6.63004 31.5899 5.24004 31.5899C4.62004 31.4399 2.63003 31.8899 2.58003 31.2199C2.41003 28.1199 2.02003 24.96 2.00003 21.86C2.49003 21.17 1.55002 20.77 1.43002 20.12C0.830024 19.19 1.43003 18.12 1.05003 17.12C1.05003 17.12 1.05003 17.1899 1.05003 17.2199H0.250031C0.200031 16.9799 0.220027 16.75 0.230027 16.52Z" fill="#191919"/>
</svg>
