<svg width="22" height="37" viewBox="0 0 22 37" fill="none" xmlns="http://www.w3.org/2000/svg">
<path d="M20.8502 0.629883H19.7703H18.6802H17.6002H16.5103H15.4302H14.3403H13.2603H12.1702H11.0903H10.0002V1.66992H8.92023V2.69983H7.83026V3.73987H6.75024V4.77991H5.66022V5.80994H4.58026V6.84985V7.87988V8.91992V9.95984V10.9899V12.0299V13.0599H3.49023H2.41022H1.33026H0.240234V14.0999V15.1399V16.1699V17.2098V18.2399V19.2799V20.3198V21.3499H1.33026H2.41022H3.49023H4.58026V22.3899V23.4199V24.4598V25.4999V26.5299V27.5698V28.6099V29.6399V30.6799V31.7098V32.7499V33.7899V34.8198V35.8599V36.8899H5.66022H6.75024H7.83026H8.92023H10.0002H11.0903H12.1702H13.2603H14.3403V35.8599V34.8198V33.7899V32.7499V31.7098V30.6799V29.6399V28.6099V27.5698V26.5299V25.4999V24.4598V23.4199V22.3899V21.3499H15.4302H16.5103H17.6002H18.6802V20.3198V19.2799V18.2399V17.2098V16.1699V15.1399V14.0999V13.0599H17.6002H16.5103H15.4302H14.3403V12.0299V10.9899V9.95984H15.4302H16.5103H17.6002H18.6802H19.7703H20.8502H21.9402V8.91992V7.87988V6.84985V5.80994V4.77991V3.73987V2.69983V1.66992V0.629883H20.8502Z" fill="#ADADAD"/>
</svg>
