<svg id="Layer_1" data-name="Layer 1" xmlns="http://www.w3.org/2000/svg" viewBox="0 0 25 25"><defs><style>.cls-1{fill:#878787;}</style></defs><polygon class="cls-1" points="18.96 0 18.24 0 17.53 0 16.81 0 16.09 0 15.37 0 14.65 0 13.94 0 13.22 0 12.5 0 11.78 0 11.78 0.71 11.06 0.71 11.06 1.43 10.35 1.43 10.35 2.14 9.63 2.14 9.63 2.86 8.91 2.86 8.91 3.57 8.19 3.57 8.19 4.29 8.19 5 8.19 5.71 8.19 6.43 8.19 7.14 8.19 7.86 8.19 8.57 7.47 8.57 6.76 8.57 6.04 8.57 5.32 8.57 5.32 9.29 5.32 10 5.32 10.71 5.32 11.43 5.32 12.14 5.32 12.86 5.32 13.57 5.32 14.29 6.04 14.29 6.76 14.29 7.47 14.29 8.19 14.29 8.19 15 8.19 15.71 8.19 16.43 8.19 17.14 8.19 17.86 8.19 18.57 8.19 19.29 8.19 20 8.19 20.71 8.19 21.43 8.19 22.14 8.19 22.86 8.19 23.57 8.19 24.29 8.19 25 8.91 25 9.63 25 10.35 25 11.06 25 11.78 25 12.5 25 13.22 25 13.94 25 14.65 25 14.65 24.29 14.65 23.57 14.65 22.86 14.65 22.14 14.65 21.43 14.65 20.71 14.65 20 14.65 19.29 14.65 18.57 14.65 17.86 14.65 17.14 14.65 16.43 14.65 15.71 14.65 15 14.65 14.29 15.37 14.29 16.09 14.29 16.81 14.29 17.53 14.29 17.53 13.57 17.53 12.86 17.53 12.14 17.53 11.43 17.53 10.71 17.53 10 17.53 9.29 17.53 8.57 16.81 8.57 16.09 8.57 15.37 8.57 14.65 8.57 14.65 7.86 14.65 7.14 14.65 6.43 15.37 6.43 16.09 6.43 16.81 6.43 17.53 6.43 18.24 6.43 18.96 6.43 19.68 6.43 19.68 5.71 19.68 5 19.68 4.29 19.68 3.57 19.68 2.86 19.68 2.14 19.68 1.43 19.68 0.71 19.68 0 18.96 0"/></svg>