<svg width="37" height="37" viewBox="0 0 37 37" fill="none" xmlns="http://www.w3.org/2000/svg">
<path d="M36.6199 6.44983V5.28992H35.2899V4.11987H34.1599V2.99988H33.1599V1.82983H31.9299V0.669922H4.99988V1.82983H3.85986V2.99988H2.71985V4.15991H1.5899V5.32983H0.359863V6.32983V28.8198V29.2299V32.3298V33.0099H1.48987V34.0099H2.62988V35.0099H3.7699V35.9598H4.8999V36.9598H32.0799V35.7999H33.2099V34.7999H34.3499V33.9999H35.4799V32.2899V32.9698H36.6199V10.4698V6.46985V6.44983ZM13.2299 10.5199V9.35986H23.4599V11.6799H25.7299V13.9999H27.9999V24.4698H25.7299V26.7999H23.4599V29.1299H13.2299V26.7999H10.9999V24.4698H8.72986V13.9999H10.9999V11.6699H13.2699L13.2299 10.5199ZM30.2299 8.18982V10.5199H26.8199V6.99988H30.2299V8.18982Z" fill="#ADADAD"/>
<path d="M13.2299 14.0101H12.0999H10.96V15.1702V16.3401V17.5001V18.6702V19.8301V20.9901V22.1602V23.3201V24.4801H12.0999H13.2299V25.6501V26.8102H14.3699H15.5099H16.64H17.78H18.9099H20.0499H21.1899H22.3199H23.46V25.6501V24.4801H24.5999H25.7299V23.3201V22.1602V20.9901V19.8301V18.6702V17.5001V16.3401V15.1702V14.0101H24.5999H23.46V12.8501V11.6802H22.3199H21.1899H20.0499H18.9099H17.78H16.64H15.5099H14.3699H13.2299V12.8501V14.0101Z" fill="#ADADAD"/>
</svg>
