<svg id="Layer_1" data-name="Layer 1" xmlns="http://www.w3.org/2000/svg" viewBox="0 0 25 25"><defs><style>.cls-1{fill:#878787;}</style></defs><path class="cls-1" d="M25,4v-.8h-.91v-.8H23.3V1.6h-.72V.8h-.84V0H3.2V.8H2.42v.8H1.63v.81H.85v.8H0v.65H0V19.37H0v.28H0v2.14H0v.47H.78V23h.79v.66h.78v.66h.78V25H21.87v-.8h0v0h.78v-.65h.78V23h.79V21.79h0v.47H25V6.75h0V4ZM8.88,6.82V6h7v1.6h1.56v1.6h1.57v7.22H17.49v1.61H15.93v1.6h-7v-1.6H7.31V16.44H5.74V9.22H7.31V7.62H8.88ZM20.63,5.21V6.82H18.28V4.41h2.35Zm3.59,14.44h0v-.14h0Z"/><polygon class="cls-1" points="8.88 9.22 8.09 9.22 7.31 9.22 7.31 10.03 7.31 10.83 7.31 11.63 7.31 12.43 7.31 13.23 7.31 14.04 7.31 14.84 7.31 15.64 7.31 16.44 8.09 16.44 8.88 16.44 8.88 17.25 8.88 18.05 9.66 18.05 10.44 18.05 11.23 18.05 12.01 18.05 12.79 18.05 13.58 18.05 14.36 18.05 15.14 18.05 15.93 18.05 15.93 17.25 15.93 16.44 16.71 16.44 17.49 16.44 17.49 15.64 17.49 14.84 17.49 14.04 17.49 13.23 17.49 12.43 17.49 11.63 17.49 10.83 17.49 10.03 17.49 9.22 16.71 9.22 15.93 9.22 15.93 8.42 15.93 7.62 15.14 7.62 14.36 7.62 13.58 7.62 12.79 7.62 12.01 7.62 11.23 7.62 10.44 7.62 9.66 7.62 8.88 7.62 8.88 8.42 8.88 9.22"/></svg>