<svg width="34" height="42" viewBox="0 0 34 42" fill="none" xmlns="http://www.w3.org/2000/svg">
<path d="M23.68 0H0.459961V41.5699H33.24V9.08997L23.68 0ZM24.68 29.77L21.58 30.03L20.92 30.72L20.5 30.65C20.26 30.8167 20.01 30.9767 19.75 31.13C18.2199 31.9576 16.4324 32.1721 14.75 31.73L14.45 31.64L14.06 31.86L13.2 31.46L10.2 32.3L8.68996 30.67L9.88996 27.88L9.61996 27.0699L9.91996 26.72H9.99996C9.82 25.7174 9.89566 24.6856 10.22 23.72L10.33 23.4301L12.56 24.3C12.216 25.2413 12.2378 26.2772 12.6211 27.2031C13.0044 28.129 13.7213 28.8774 14.63 29.3C15.6358 29.771 16.7841 29.8374 17.8375 29.4856C18.8909 29.1338 19.7689 28.3908 20.29 27.41C20.5407 26.9357 20.6913 26.4148 20.7326 25.8799C20.7739 25.3449 20.7049 24.8073 20.53 24.3C20.3538 23.7921 20.0771 23.3248 19.7162 22.9261C19.3554 22.5275 18.918 22.2057 18.43 21.98C18.0416 21.7937 17.6266 21.6689 17.2 21.61C16.95 21.44 16.79 21.33 16.51 21.16L14.92 21.46L14.44 22.13C13.7294 22.5352 13.1499 23.1356 12.77 23.86L12.69 24.01L10.46 23.14C10.9216 22.133 11.6387 21.2642 12.54 20.62V20.2L13.31 19.77L14.5 17L16.68 16.75L18.5 19.26L19.4 19.5699L19.45 19.9399V20.04C20.6769 20.6132 21.6892 21.5624 22.34 22.75C22.6352 23.2945 22.8443 23.8815 22.96 24.49L23.36 24.72V25.5699L25.46 27.76L24.68 29.77Z" fill="#ADADAD"/>
</svg>
