<svg width="43" height="37" viewBox="0 0 43 37" fill="none" xmlns="http://www.w3.org/2000/svg">
<path d="M41.17 1.84985V0.629883H39.9601H38.7601H37.55H36.35V1.84985H35.1501H33.9401V3.06982H32.7401H31.5301H30.3301V4.28992H29.1301H27.92V5.50989H26.72H25.5101H24.3101V6.72986H23.3201H23.22H22.23H22.1201H21.0301V7.94983H19.8201H18.6201V9.05994H17.41H16.2101H15.0001V10.2799H13.8H12.6H11.3901V11.2799H10.1901H8.98004V12.4999H7.78009H6.58008H5.37006V13.6099H4.17004H2.96008V14.8298H1.76007V16.0499H0.560059V17.2699V18.4799V19.6998H1.76007H2.96008V20.9199H4.17004H5.37006H6.58008H7.78009V22.1399H8.98004H10.1901H11.3901H12.6V23.1399H13.8V24.3599V25.5798H15.0001V26.7999V28.0199V29.2399V30.4598H16.2101V31.6799V34.4498H17.41V35.6699V36.8899H18.6201V35.6699V34.4498H19.8201V31.6799V30.4598V29.2399V28.0199V25.5798H20.7001V24.3599V23.1399V21.9199V20.6998V19.6998V19.4799V18.4799H21.9001V17.2699H23.11H24.3101V16.0499H25.5101V14.8298H26.72V13.6099H27.92V12.3899H29.1301V11.1699H30.3301V9.94983H31.5301H32.7401V11.0599H31.5301V12.2799V13.4899H30.3301V14.5999V14.7098V15.7098V15.8198V16.8198H29.1301V18.0399H27.92V19.2599V20.4799H26.72V21.6998H25.5101V22.8099H24.3101V24.0299H23.3201V25.2499V26.4698V27.6898V28.9099H24.5301V29.9099H25.6201H25.73H26.72V31.1299H27.92V32.3499H29.1301V33.5698H30.3301V34.7899H31.5301V36.0099H32.7401H33.9401H35.1501H36.35V34.7899H37.55V33.5698V32.3499V31.1299V29.9099H38.7601V28.6898V27.4698V26.2499V25.0299V23.8099V22.5898V21.3699V20.1499V18.9299H39.9601V17.7098V16.4899V15.2699V14.0499V12.8298H41.17V11.6099V10.3899V9.16992V7.94983H42.3701V6.72986V5.50989V4.28992V3.06982V1.84985H41.17Z" fill="#ADADAD"/>
</svg>
