<svg id="Layer_1" data-name="Layer 1" xmlns="http://www.w3.org/2000/svg" viewBox="0 0 25 25"><defs><style>.cls-1{fill:#878787;}</style></defs><polygon class="cls-1" points="24.28 2.52 24.28 1.8 23.56 1.8 22.84 1.8 22.12 1.8 21.4 1.8 21.4 2.52 20.68 2.52 19.96 2.52 19.96 3.24 19.24 3.24 18.52 3.24 17.8 3.24 17.8 3.96 17.08 3.96 16.36 3.96 16.36 4.68 15.64 4.68 14.92 4.68 14.2 4.68 14.2 5.4 13.61 5.4 13.55 5.4 12.96 5.4 12.89 5.4 12.24 5.4 12.24 6.12 11.52 6.12 10.8 6.12 10.8 6.77 10.08 6.77 9.36 6.77 8.64 6.77 8.64 7.49 7.92 7.49 7.2 7.49 6.48 7.49 6.48 8.08 5.76 8.08 5.04 8.08 5.04 8.8 4.32 8.8 3.6 8.8 2.88 8.8 2.88 9.46 2.16 9.46 1.44 9.46 1.44 10.18 0.72 10.18 0.72 10.9 0 10.9 0 11.62 0 12.34 0 13.06 0.72 13.06 1.44 13.06 1.44 13.78 2.16 13.78 2.88 13.78 3.6 13.78 4.32 13.78 4.32 14.5 5.04 14.5 5.76 14.5 6.48 14.5 7.2 14.5 7.2 15.09 7.92 15.09 7.92 15.8 7.92 16.52 8.64 16.52 8.64 17.25 8.64 17.96 8.64 18.68 8.64 19.4 9.36 19.4 9.36 20.12 9.36 21.76 10.08 21.76 10.08 22.48 10.08 23.2 10.8 23.2 10.8 22.48 10.8 21.76 11.52 21.76 11.52 20.12 11.52 19.4 11.52 18.68 11.52 17.96 11.52 16.52 12.04 16.52 12.04 15.8 12.04 15.09 12.04 14.37 12.04 13.64 12.04 13.06 12.04 12.93 12.04 12.34 12.76 12.34 12.76 11.62 13.48 11.62 14.2 11.62 14.2 10.9 14.92 10.9 14.92 10.18 15.64 10.18 15.64 9.46 16.36 9.46 16.36 8.74 17.08 8.74 17.08 8.02 17.8 8.02 17.8 7.3 18.52 7.3 19.24 7.3 19.24 7.95 18.52 7.95 18.52 8.67 18.52 9.39 17.8 9.39 17.8 10.05 17.8 10.11 17.8 10.7 17.8 10.77 17.8 11.36 17.08 11.36 17.08 12.07 16.36 12.07 16.36 12.79 16.36 13.51 15.64 13.51 15.64 14.23 14.92 14.23 14.92 14.89 14.2 14.89 14.2 15.61 13.61 15.61 13.61 16.33 13.61 17.05 13.61 17.77 13.61 18.49 14.33 18.49 14.33 19.08 14.99 19.08 15.05 19.08 15.64 19.08 15.64 19.8 16.36 19.8 16.36 20.52 17.08 20.52 17.08 21.24 17.8 21.24 17.8 21.96 18.52 21.96 18.52 22.68 19.24 22.68 19.96 22.68 20.68 22.68 21.4 22.68 21.4 21.96 22.12 21.96 22.12 21.24 22.12 20.52 22.12 19.8 22.12 19.08 22.84 19.08 22.84 18.36 22.84 17.64 22.84 16.92 22.84 16.2 22.84 15.48 22.84 14.76 22.84 14.04 22.84 13.32 22.84 12.6 23.56 12.6 23.56 11.88 23.56 11.16 23.56 10.44 23.56 9.72 23.56 9 24.28 9 24.28 8.28 24.28 7.56 24.28 6.84 24.28 6.12 25 6.12 25 5.4 25 4.68 25 3.96 25 3.24 25 2.52 24.28 2.52"/></svg>