<svg width="31" height="38" viewBox="0 0 31 38" fill="none" xmlns="http://www.w3.org/2000/svg">
<g opacity="0.5" filter="url(#filter0_d_14_177)">
<path d="M20.26 0.380005H4.5V30H26.75V6.82996L20.26 0.380005ZM20.94 21.63L18.83 21.8101L18.38 22.3H18.1C17.9403 22.4282 17.7697 22.5419 17.59 22.64C17.08 22.9334 16.5168 23.1225 15.9332 23.1963C15.3495 23.2701 14.7569 23.2271 14.19 23.0699L14 23L13.74 23.16L13.15 22.87L11.15 23.47L10.15 22.3101L10.96 20.3101L10.78 19.73L10.98 19.48H11C10.8884 18.7771 10.9432 18.0579 11.16 17.38C11.1788 17.3086 11.2022 17.2385 11.23 17.17L12.74 17.79C12.5979 18.2183 12.5595 18.6742 12.628 19.1202C12.6966 19.5663 12.87 19.9896 13.1341 20.3555C13.3982 20.7214 13.7454 21.0194 14.1472 21.2249C14.5489 21.4303 14.9937 21.5375 15.445 21.5375C15.8963 21.5375 16.3411 21.4303 16.7428 21.2249C17.1446 21.0194 17.4918 20.7214 17.7559 20.3555C18.02 19.9896 18.1934 19.5663 18.262 19.1202C18.3305 18.6742 18.2921 18.2183 18.15 17.79C18.0377 17.4318 17.8539 17.1 17.6099 16.8147C17.3658 16.5294 17.0665 16.2965 16.73 16.13C16.4683 16.0014 16.1883 15.9137 15.9 15.87L15.43 15.55L14.35 15.76L14.02 16.24C13.5294 16.536 13.1338 16.9663 12.88 17.48C12.88 17.48 12.88 17.55 12.88 17.59L11.36 16.96C11.668 16.249 12.1535 15.6293 12.77 15.16V14.87L13.3 14.5601L14.09 12.5601L15.57 12.39L16.8 14.1801L17.42 14.4V14.66V14.73C18.2759 15.1476 18.9765 15.8272 19.42 16.67C19.6192 17.0609 19.7606 17.4786 19.84 17.91L20.12 18.0699V18.6801L21.55 20.24L20.94 21.63Z" fill="#191919"/>
<path d="M7.14474 6.11484L6.9897 6.04644L7.96554 4.03434L8.1183 4.10958L7.14474 6.11484ZM8.70564 5.71698H9.37368L9.3486 5.88H8.4708V5.73522L9.13656 4.84602H8.52324V4.67958H9.36684V4.82778L8.70564 5.71698ZM9.98383 5.34762C9.98763 5.44034 10.0055 5.51634 10.0374 5.57562C10.0693 5.63414 10.1115 5.67746 10.164 5.70558C10.2164 5.73294 10.2734 5.74662 10.335 5.74662C10.3965 5.74662 10.452 5.7375 10.5014 5.71926C10.5516 5.70102 10.6029 5.67404 10.6553 5.63832L10.7454 5.76486C10.6891 5.80894 10.6249 5.84352 10.5527 5.8686C10.4813 5.89368 10.4079 5.90622 10.3327 5.90622C10.2164 5.90622 10.1172 5.88 10.0351 5.82756C9.95305 5.77512 9.89035 5.70216 9.84703 5.60868C9.80447 5.51444 9.78319 5.40538 9.78319 5.2815C9.78319 5.1599 9.80485 5.05198 9.84817 4.95774C9.89149 4.8635 9.95229 4.7894 10.0306 4.73544C10.1089 4.68148 10.2012 4.6545 10.3076 4.6545C10.4087 4.6545 10.4957 4.67844 10.5687 4.72632C10.6416 4.77344 10.6975 4.84108 10.7362 4.92924C10.7758 5.01664 10.7955 5.12114 10.7955 5.24274C10.7955 5.26326 10.7951 5.28264 10.7944 5.30088C10.7936 5.31836 10.7925 5.33394 10.791 5.34762H9.98383ZM10.3099 4.81182C10.221 4.81182 10.1465 4.84336 10.0864 4.90644C10.0272 4.96952 9.99333 5.06718 9.98497 5.19942H10.6108C10.6086 5.07098 10.5804 4.97446 10.5265 4.90986C10.4725 4.8445 10.4003 4.81182 10.3099 4.81182ZM11.2119 5.88V5.73294H11.3988V4.82664H11.2119V4.67958H11.5447L11.5801 4.96344C11.6264 4.86464 11.6827 4.78826 11.7488 4.7343C11.8149 4.68034 11.9023 4.65336 12.011 4.65336C12.0444 4.65336 12.0741 4.65602 12.0999 4.66134C12.1265 4.6659 12.1535 4.67198 12.1809 4.67958L12.125 4.85058C12.0999 4.84374 12.0771 4.8388 12.0566 4.83576C12.0361 4.83196 12.0125 4.83006 11.9859 4.83006C11.894 4.83006 11.8149 4.86274 11.7488 4.9281C11.6827 4.99346 11.6299 5.09226 11.5903 5.2245V5.73294H11.8343V5.88H11.2119ZM11.9962 5.08542V4.82436L12.0156 4.67958H12.1809L12.1535 5.08542H11.9962ZM13.0247 4.6545C13.138 4.6545 13.2326 4.68034 13.3086 4.73202C13.3853 4.78294 13.4427 4.85514 13.4807 4.94862C13.5195 5.0421 13.5389 5.1523 13.5389 5.27922C13.5389 5.40158 13.5191 5.50988 13.4796 5.60412C13.4401 5.69836 13.3819 5.77246 13.3052 5.82642C13.2292 5.87962 13.1349 5.90622 13.0224 5.90622C12.91 5.90622 12.8153 5.88038 12.7386 5.8287C12.6618 5.77702 12.6037 5.70444 12.5642 5.61096C12.5254 5.51672 12.506 5.4069 12.506 5.2815C12.506 5.15762 12.5258 5.04856 12.5653 4.95432C12.6048 4.86008 12.663 4.78674 12.7397 4.7343C12.8172 4.6811 12.9122 4.6545 13.0247 4.6545ZM13.0247 4.81068C12.9214 4.81068 12.8431 4.84906 12.7899 4.92582C12.7374 5.00182 12.7112 5.12038 12.7112 5.2815C12.7112 5.43958 12.7371 5.557 12.7887 5.63376C12.8412 5.71052 12.9191 5.7489 13.0224 5.7489C13.1258 5.7489 13.2033 5.71052 13.255 5.63376C13.3074 5.557 13.3337 5.43882 13.3337 5.27922C13.3337 5.11962 13.3078 5.00182 13.2561 4.92582C13.2045 4.84906 13.1273 4.81068 13.0247 4.81068Z" fill="#8E8E8E"/>
</g>
<defs>
<filter id="filter0_d_14_177" x="0.5" y="0.380005" width="30.25" height="37.62" filterUnits="userSpaceOnUse" color-interpolation-filters="sRGB">
<feFlood flood-opacity="0" result="BackgroundImageFix"/>
<feColorMatrix in="SourceAlpha" type="matrix" values="0 0 0 0 0 0 0 0 0 0 0 0 0 0 0 0 0 0 127 0" result="hardAlpha"/>
<feOffset dy="4"/>
<feGaussianBlur stdDeviation="2"/>
<feComposite in2="hardAlpha" operator="out"/>
<feColorMatrix type="matrix" values="0 0 0 0 0 0 0 0 0 0 0 0 0 0 0 0 0 0 0.25 0"/>
<feBlend mode="normal" in2="BackgroundImageFix" result="effect1_dropShadow_14_177"/>
<feBlend mode="normal" in="SourceGraphic" in2="effect1_dropShadow_14_177" result="shape"/>
</filter>
</defs>
</svg>
