<svg width="94" height="10" viewBox="0 0 94 10" fill="none" xmlns="http://www.w3.org/2000/svg">
<path d="M4.39998 1.60004L4.46998 2.16003C4.46472 2.16916 4.46194 2.1795 4.46194 2.19003C4.46194 2.20057 4.46472 2.21091 4.46998 2.22003L6.65998 3.66003C6.75566 3.72166 6.86624 3.75622 6.97998 3.76004C8.91998 3.83004 27.17 4.52005 33.29 4.61005C39.74 4.71005 56.69 4.61005 57.47 4.18005L58.11 3.60004L62.75 3.33005L63.68 4.33005H63.43C63.4105 4.3325 63.3927 4.342 63.3798 4.35675C63.3669 4.3715 63.3598 4.39044 63.36 4.41003V5.46005C63.3598 5.47965 63.3669 5.49862 63.3798 5.51337C63.3927 5.52811 63.4105 5.53759 63.43 5.54004L68.32 5.32004C68.38 5.32004 68.41 5.23005 68.32 5.18005L66.55 3.25003C66.5446 3.23379 66.5446 3.21628 66.55 3.20004L66.44 1.79004C66.44 1.74004 66.44 1.71005 66.37 1.71005C65.37 1.78005 52.22 2.65006 45.85 2.62006C39.23 2.62006 23.13 2.30005 18 2.08005C13.14 1.87005 5.12998 1.58005 4.26998 1.55005C4.26542 1.56678 4.26724 1.5846 4.27507 1.60007C4.28291 1.61554 4.2962 1.62756 4.31239 1.63379C4.32857 1.64001 4.34649 1.63999 4.36267 1.63376C4.37886 1.62753 4.39215 1.61551 4.39998 1.60004Z" fill="#191919"/>
<path d="M50.45 6.16C39.45 6.5 15.61 6.37001 6.60999 5.39001C4.05021 4.77649 1.77966 3.30047 0.179993 1.21002C0.957855 1.32056 1.71568 1.54285 2.42999 1.87003C3.35999 2.52003 5.95999 4.12 6.81999 4.19C21.67 5.53 48.82 5.47001 63.07 4.38L63.12 5.53L50.45 6.16Z" fill="#191919"/>
<path d="M67.18 1.41998L67.31 3.06998C67.3028 3.08566 67.2991 3.10274 67.2991 3.12C67.2991 3.13725 67.3028 3.15429 67.31 3.16998L69.23 5.25998L69.3 5.35999C69.3119 5.37918 69.328 5.39544 69.347 5.40756C69.366 5.41968 69.3876 5.42735 69.41 5.42999H69.69C69.7154 5.43118 69.74 5.43925 69.7611 5.45334C69.7822 5.46743 69.7991 5.48701 69.81 5.50998L72.03 9.71997C72.0383 9.73528 72.0497 9.74877 72.0633 9.75961C72.0769 9.77046 72.0926 9.77845 72.1094 9.78311C72.1262 9.78778 72.1438 9.78903 72.161 9.78677C72.1783 9.78452 72.195 9.77881 72.21 9.76999L72.36 9.65997C72.3887 9.63418 72.4088 9.60028 72.4177 9.56277C72.4267 9.52527 72.424 9.48592 72.41 9.44998L71.58 7.64999C71.5627 7.61461 71.5583 7.57434 71.5674 7.53604C71.5765 7.49774 71.5986 7.46377 71.63 7.43997L72.13 7.07999C72.1499 7.06653 72.1666 7.04876 72.1787 7.02798C72.1908 7.00721 72.1981 6.98397 72.2 6.95999L72.25 6.10999C72.2511 6.08445 72.258 6.05949 72.2702 6.03699C72.2823 6.01448 72.2993 5.99499 72.32 5.97998L73.85 5.19998L82.09 4.57999C82.1024 4.58615 82.1161 4.58936 82.13 4.58936C82.1439 4.58936 82.1576 4.58615 82.17 4.57999L82.76 3.87C82.7708 3.85597 82.7844 3.84429 82.7998 3.83569C82.8153 3.8271 82.8324 3.82174 82.85 3.81998L88.24 3.45999H88.32L89.07 4.06998H89.16L93.21 3.75998C93.2289 3.75858 93.2471 3.75233 93.2629 3.74182C93.2786 3.73131 93.2914 3.71689 93.3 3.69998L93.91 2.78998C93.9249 2.76231 93.9327 2.73139 93.9327 2.69998C93.9327 2.66857 93.9249 2.63765 93.91 2.60999L93 0.909973C92.9917 0.889141 92.9781 0.870831 92.9605 0.856812C92.943 0.842792 92.9221 0.833556 92.9 0.829987L89.59 0.47998L73.43 1.57999L72.49 1.31H71.66C71.6263 1.31233 71.5946 1.32675 71.5707 1.35065C71.5468 1.37454 71.5323 1.40626 71.53 1.43997C71.53 1.55997 71.47 1.72997 71.4 1.68997C71.33 1.64997 71.31 1.54998 71.29 1.44998C71.2858 1.41696 71.2708 1.38627 71.2473 1.36273C71.2237 1.3392 71.193 1.32415 71.16 1.31998C71.1246 1.32669 71.0925 1.34515 71.0689 1.37238C71.0453 1.3996 71.0316 1.43398 71.03 1.46997C71.03 1.57997 71.03 1.70997 70.94 1.71997C70.85 1.72997 70.85 1.58998 70.83 1.47998C70.81 1.36998 70.76 1.33998 70.7 1.34998C70.63 1.34998 70.58 1.41998 70.58 1.50998C70.58 1.59998 70.58 1.72999 70.47 1.73999C70.36 1.74999 70.36 1.61999 70.35 1.51999C70.34 1.41999 70.28 1.36 70.21 1.37H69.82C69.8048 1.37877 69.7876 1.38339 69.77 1.38339C69.7525 1.38339 69.7352 1.37877 69.72 1.37L69.52 1.14999C69.4907 1.14078 69.4593 1.14078 69.43 1.14999L68.01 1.21997L67.89 1.26999H67.4C67.33 1.26999 67.28 1.34999 67.28 1.42999L67.18 1.41998Z" fill="#191919"/>
</svg>
