<svg width="26" height="32" viewBox="0 0 26 32" fill="none" xmlns="http://www.w3.org/2000/svg">
<path d="M19.51 17.75C20.02 13.26 18.45 16.09 24.27 12.97C24.6693 12.7344 25.0533 12.4739 25.42 12.19C25.6 12.03 26.07 11.98 25.91 11.65C24.79 9.47002 23.62 7.32001 22.46 5.17001C22.0228 4.50477 21.4242 3.96119 20.72 3.59003C19.59 2.71003 18.44 1.86004 17.25 1.04004C16.9146 0.790057 16.5563 0.572393 16.1799 0.390015C16.1199 0.390015 14.41 0.940018 13.6 1.05002C12.7385 1.1421 11.8678 1.09823 11.02 0.920013L9.83995 0.660034C9.73785 0.632353 9.62961 0.637772 9.53078 0.675507C9.43195 0.713242 9.34762 0.781339 9.28995 0.870026C9.06798 1.07869 8.86081 1.30258 8.66995 1.54004C8.20511 1.99159 7.69203 2.39062 7.13996 2.73001C6.13996 3.22001 5.13996 3.73004 4.13996 4.32004C3.90009 4.50809 3.67601 4.71545 3.46996 4.94003C3.04996 5.30003 2.98995 5.85004 2.77995 6.32004C1.90995 8.32004 1.47995 10.44 0.729952 12.47C0.720383 12.5097 0.719919 12.5509 0.728578 12.5908C0.737238 12.6306 0.754799 12.6679 0.779955 12.7C1.6296 13.3589 2.54043 13.9349 3.49996 14.42C3.82457 14.6011 4.18308 14.7133 4.55304 14.7494C4.923 14.7856 5.29643 14.7449 5.64995 14.63C5.74995 14.63 5.78995 14.63 5.78995 14.75C5.78995 15.88 5.88996 17.01 5.88996 18.14C5.88996 20.05 5.38995 21.97 5.72995 23.88C5.78247 24.3622 5.74861 24.8498 5.62996 25.32C5.53 25.9092 5.53 26.5109 5.62996 27.1C5.62996 28.16 5.39996 29.24 5.34996 30.31C5.34996 30.63 5.34996 30.79 5.65996 30.89C7.86016 31.6366 10.1781 31.9755 12.5 31.89C14.2823 32.0187 16.074 31.8908 17.82 31.51C18.35 31.42 18.82 31.27 19.39 31.13C19.69 31.01 20.24 30.96 20.17 30.51C19.9714 29.5623 19.8609 28.5982 19.84 27.63C19.9553 27.2 19.9859 26.7517 19.9299 26.31C19.8899 23.39 19.52 17.76 19.51 17.75Z" fill="#191919"/>
</svg>
