<svg width="34" height="32" viewBox="0 0 34 32" fill="none" xmlns="http://www.w3.org/2000/svg">
<path d="M2.24009 9.13002C2.57009 10.38 2.71008 11.66 2.95008 12.93C2.7296 13.194 2.58369 13.5121 2.52743 13.8515C2.47117 14.1908 2.50661 14.539 2.63009 14.86C2.76009 15.09 3.01008 14.86 3.17008 14.97C3.33008 15.08 3.59008 15.49 3.17008 15.44C3.80008 17.25 0.700084 17.56 0.530084 15.99C0.620084 15.63 0.290089 14.9 0.910089 14.99C1.01009 14.99 1.02009 14.99 1.05009 14.86C0.930088 12.03 0.850089 7.95999 3.91009 6.59999C4.10009 6.51999 3.98009 6.38 3.91009 6.23C3.77009 5.81 4.44008 5.62003 4.75008 5.64003C4.91008 5.64003 4.97009 5.85998 5.13009 5.83998C5.29009 5.81998 5.02009 5.63002 5.13009 5.50002C5.24009 5.37002 5.42008 5.62002 5.48008 5.50002C5.57008 5.15002 5.83009 5.01001 6.13009 4.87001C7.95009 4.87001 9.33008 2.87004 11.0401 2.27004C12.0401 1.97004 13.0901 2.61001 14.1201 2.62001C15.6901 2.77001 17.3001 2.62004 18.7801 3.27004C20.0701 3.92004 21.2601 3.20999 22.4101 2.65999C24.2137 2.00889 26.1047 1.63138 28.0201 1.53999C28.1301 1.82999 28.5601 1.87999 28.8001 2.02999C30.5801 3.26999 29.8801 2.02999 30.4601 0.65999C30.5301 0.21999 31.6901 0.800037 31.6601 1.02004C30.8801 2.95004 30.8501 4.93002 30.5001 6.94002C30.9678 6.9567 31.4129 7.1454 31.7501 7.46999C31.9501 7.87999 32.2001 8.66999 31.7501 8.96999C31.6139 9.71423 31.6654 10.4807 31.9001 11.2C31.9173 11.358 31.8899 11.5176 31.8209 11.6608C31.752 11.804 31.6443 11.925 31.5101 12.01C31.3601 12.11 31.5101 12.25 31.8201 12.52C33.1901 14.52 33.2001 17.24 32.8201 19.59C32.4901 22.39 31.2601 24.93 30.5401 27.64C30.0101 29.17 30.2301 29.83 28.5401 30.38C25.7801 32.3 22.2501 31.19 19.0901 31.28C15.8001 31 11.5501 31.8 9.28008 28.83C7.84008 26.07 7.51008 22.83 6.92008 19.83C6.20008 16.54 6.65009 13.26 9.49009 11.23C9.83009 8.91 10.9001 4.64004 7.18008 7.52004C5.48856 7.90781 3.83527 8.44663 2.24009 9.13002ZM21.5201 10.46C21.7101 10.05 21.1201 9.87003 20.8301 9.70003C20.5101 9.83003 20.3201 11.22 21.0301 10.86C21.0801 10.64 21.3701 10.6 21.5301 10.46C20.8101 11.76 20.0101 11.17 20.4801 9.83003C20.9501 8.83003 21.7201 7.97 22.2501 6.92C23.4501 4.81973 25.2746 3.14552 27.4701 2.13002C26.3601 2.52002 25.1401 2.79002 23.9801 3.13002C23.2959 3.6082 22.5247 3.94792 21.7101 4.13002C20.7701 4.37002 19.9401 3.82999 19.0701 3.71999C17.7093 4.13396 16.2922 4.33305 14.8701 4.31001C10.6601 3.70001 11.6301 0.949995 8.58009 5.54C10.6401 6.29 11.2901 8.87 11.2401 10.86C11.2401 11.16 11.7301 11.23 11.9001 11.47C12.4101 11.95 12.7101 12.79 13.5201 12.75C17.6968 13.1066 21.8922 13.1934 26.0801 13.01C26.9001 12.85 27.3501 11.89 28.1801 11.68C29.0101 11.47 28.4801 9.86999 28.7901 9.09999C28.9101 9.09999 28.9601 9.10003 28.9801 8.95003C29.0501 8.43003 29.4501 7.95001 29.4101 7.43001C29.2658 7.26957 29.1537 7.08285 29.0801 6.88002C28.9501 6.72002 28.7401 6.58004 28.6901 6.40004C28.6901 6.04004 28.8301 5.65002 28.8001 5.32002C28.5401 5.10002 28.8001 4.99999 28.9801 4.96999C28.9801 4.85999 28.8101 4.88 28.8801 4.73C28.7849 4.12371 28.7849 3.50633 28.8801 2.90004C28.0349 3.3347 27.1423 3.67026 26.2201 3.90004C25.4501 4.26004 24.0601 4.13999 23.8801 5.15999C23.5101 6.88999 22.4101 8.48999 22.0001 10.16C21.8601 10.37 21.7301 10.5 21.5201 10.46ZM1.66009 16.32C1.98009 16.32 3.11009 16.25 2.66009 15.77C2.25009 15.85 1.66009 15.69 1.33009 15.93C1.33009 16.17 1.34009 16.39 1.66009 16.32ZM5.44009 6.32002C5.45253 6.35244 5.47582 6.37953 5.50601 6.39668C5.53619 6.41384 5.5714 6.41998 5.60561 6.41408C5.63983 6.40818 5.67094 6.39061 5.69364 6.36434C5.71634 6.33806 5.72922 6.30475 5.73008 6.27004C5.69008 6.08004 5.52009 6.12001 5.44009 6.31001V6.32002ZM5.96009 5.52999L6.13009 5.86C6.29009 5.8 6.09009 5.39004 6.00008 5.52004L5.96009 5.52999ZM3.20008 15.36C3.20008 15.36 3.11008 15.27 3.09008 15.36C3.07008 15.45 3.15008 15.41 3.20008 15.35V15.36ZM0.800088 15.86L0.860086 15.79C0.800086 15.79 0.780088 15.81 0.800088 15.89V15.86ZM6.50008 6.87001C6.50008 6.87001 6.57008 6.90004 6.53008 6.90004L6.50008 6.87001ZM2.60009 15.23C2.60009 15.23 2.60009 15.23 2.60009 15.28C2.60009 15.33 2.65009 15.29 2.63009 15.26L2.60009 15.23Z" fill="#191919"/>
</svg>
