<svg id="Layer_1" data-name="Layer 1" xmlns="http://www.w3.org/2000/svg" viewBox="0 0 50 50"><defs><style>.cls-1{fill:#191919;}</style></defs><path class="cls-1" d="M24.38,12.5h1.26c9.32,1,11.54,8.8,10.58,17-1.44,1.54-3.41,2.62-5,4a18.34,18.34,0,0,0-.09,2.89,1,1,0,0,1-.66,1.07c-3.45.58-.63-3.1-2.77-2.54-.63.72.32,2.24-.95,2.59h-.39c-1.37-.31-.14-2.16-1.12-2.67-1.61-.19,0,2.42-1.52,2.67-2,.18-.35-2.44-1.65-2.69-1.57.39.77,3.24-2.49,2.64-1.22-.67-.4-2.6-.62-3.76-1.37-1.66-4-2.54-5.18-4.38C12.89,21.19,15.15,13.41,24.38,12.5Zm-1,13.59h0a3.11,3.11,0,1,0-4,3A3.15,3.15,0,0,0,23.41,26.09Zm3.23,0c0,4.1,6.28,4,6.22-.08S26.62,22.09,26.62,26.1ZM25,31.51c2.42.41,1-1.8.15-2.67-.83-.12-.94,1.1-1.37,1.59C23.1,31.38,24.25,31.64,25,31.51Z"/></svg>