<svg id="Layer_1" data-name="Layer 1" xmlns="http://www.w3.org/2000/svg" viewBox="0 0 50 50"><defs><style>.cls-1{fill:#191919;}</style></defs><path class="cls-1" d="M16.68,24.51c.21-4.09.13-8.44,1.31-12.35.53-.81.18-2.05.94-2.62a51.55,51.55,0,0,1,10.68-.4c1.79.18,1,1.27,1.21,2.42,1.21,2.26.75,5,1.53,7.35.52,1.65.26,3.54.8,5.19.11,1.44-.8,2.77-.18,4.15a10.3,10.3,0,0,0,.32,3.4A30.29,30.29,0,0,1,33,37.81c0,.24.08.63,0,.69-.38.2,0,.41-.09.62a2.41,2.41,0,0,1-.11,1.56c-.52.79-1.7-.14-2.47-.08-.3-.09-1.14.2-1.1-.29-.18-1.14.28-2.3-.28-3.4-.78-1.31-.53-3-.84-4.35h0c-.91-1.73-.4-3.93-1.67-5.57-.12-.25.1-.76-.57-.56-.62-.53.24-1.83-.56-2.43-2.44-1.26-1.42,7.43-1.68,8.77,0,1.54-.84,2.79-1,4.25-.08.9.23,1.9-1.1,1.88-.59-.15-2.5.28-2.55-.36-.16-3-.53-6-.56-9,.48-.67-.42-1.05-.54-1.67-.58-.89-.05-1.94-.36-2.83,0,0,0,.06,0,.09h-.79C16.65,25,16.67,24.73,16.68,24.51Z"/></svg>