<svg width="280" height="45" viewBox="0 0 280 45" fill="none" xmlns="http://www.w3.org/2000/svg">
<g filter="url(#filter0_d_124_2)">
<path d="M247.09 31.59C247.58 31.59 248.06 31.7354 248.468 32.0079C248.876 32.2804 249.194 32.6678 249.381 33.1209C249.569 33.5741 249.618 34.0727 249.522 34.5538C249.427 35.0349 249.19 35.4768 248.844 35.8236C248.497 36.1704 248.055 36.4066 247.574 36.5023C247.093 36.598 246.594 36.5489 246.141 36.3612C245.688 36.1735 245.3 35.8556 245.028 35.4478C244.755 35.04 244.61 34.5605 244.61 34.07C244.613 33.4131 244.875 32.7838 245.339 32.3193C245.804 31.8547 246.433 31.5926 247.09 31.59ZM247.09 31.23C246.526 31.23 245.974 31.3974 245.506 31.711C245.037 32.0246 244.671 32.4703 244.456 32.9917C244.241 33.513 244.185 34.0866 244.295 34.6397C244.406 35.1928 244.679 35.7006 245.078 36.0988C245.478 36.4969 245.987 36.7676 246.54 36.8764C247.094 36.9853 247.667 36.9274 248.188 36.7102C248.708 36.4929 249.153 36.1261 249.465 35.6561C249.777 35.1861 249.942 34.6341 249.94 34.07C249.937 33.3158 249.636 32.5935 249.102 32.0612C248.568 31.5289 247.844 31.23 247.09 31.23Z" fill="black"/>
<path d="M247.05 35.76C246.773 35.7615 246.5 35.6951 246.255 35.5664C246.01 35.4378 245.8 35.2509 245.644 35.0222C245.488 34.7935 245.391 34.53 245.361 34.2549C245.33 33.9797 245.368 33.7013 245.471 33.4442C245.573 33.1871 245.737 32.9591 245.949 32.7802C246.16 32.6013 246.412 32.4771 246.682 32.4184C246.953 32.3597 247.234 32.3684 247.5 32.4436C247.766 32.5189 248.01 32.6584 248.21 32.85L247.95 33.12C247.708 32.8884 247.385 32.7595 247.05 32.76C246.721 32.7887 246.415 32.9397 246.192 33.1831C245.969 33.4265 245.845 33.7448 245.845 34.075C245.845 34.4052 245.969 34.7234 246.192 34.9668C246.415 35.2103 246.721 35.3613 247.05 35.39C247.385 35.3905 247.708 35.2615 247.95 35.03L248.21 35.3C247.897 35.5966 247.481 35.7613 247.05 35.76Z" fill="black"/>
<path d="M69.26 11.1H58.55V36.91H69.26V11.1Z" fill="black"/>
<path d="M16.77 0.400024L4.88 12.29V36.91H15.58V16.73L21.2 11.1H58.55V0.400024H16.77Z" fill="black"/>
<path d="M139.56 12.29V36.91H150.27V18.67L168.52 36.92H183.66L157.84 11.1H203.94V0.400024H151.45L139.56 12.29Z" fill="black"/>
<path d="M141.2 6.45002L135.15 0.400024H84.11L72.22 12.29V36.91H82.93V16.73L88.55 11.1H121.4L106.3 26.21H85.82V36.91H136.52V26.21H121.44L136.54 11.1L141.2 6.45002Z" fill="black"/>
<path d="M260.83 0.400024L235.03 26.21H250.17L275.98 0.400024H260.83Z" fill="black"/>
<path d="M223.19 26.21L217.57 20.58V0.400024H206.86V25.02L218.75 36.91H235.03V26.21H223.19Z" fill="black"/>
<path d="M247.09 31.59C247.58 31.59 248.06 31.7354 248.468 32.0079C248.876 32.2804 249.194 32.6678 249.381 33.1209C249.569 33.5741 249.618 34.0727 249.522 34.5538C249.427 35.0349 249.19 35.4768 248.844 35.8236C248.497 36.1704 248.055 36.4066 247.574 36.5023C247.093 36.598 246.594 36.5489 246.141 36.3612C245.688 36.1735 245.3 35.8556 245.028 35.4478C244.755 35.04 244.61 34.5605 244.61 34.07C244.613 33.4131 244.875 32.7838 245.339 32.3193C245.804 31.8547 246.433 31.5926 247.09 31.59ZM247.09 31.23C246.526 31.23 245.974 31.3974 245.506 31.711C245.037 32.0246 244.671 32.4703 244.456 32.9917C244.241 33.513 244.185 34.0866 244.295 34.6397C244.406 35.1928 244.679 35.7006 245.078 36.0988C245.478 36.4969 245.987 36.7676 246.54 36.8764C247.094 36.9853 247.667 36.9274 248.188 36.7102C248.708 36.4929 249.153 36.1261 249.465 35.6561C249.777 35.1861 249.942 34.6341 249.94 34.07C249.937 33.3158 249.636 32.5935 249.102 32.0612C248.568 31.5289 247.844 31.23 247.09 31.23Z" fill="#191919"/>
<path d="M247.05 35.76C246.773 35.7615 246.5 35.6951 246.255 35.5664C246.01 35.4378 245.8 35.2509 245.644 35.0222C245.488 34.7935 245.391 34.53 245.361 34.2549C245.33 33.9797 245.368 33.7013 245.471 33.4442C245.573 33.1871 245.737 32.9591 245.949 32.7802C246.16 32.6013 246.412 32.4771 246.682 32.4184C246.953 32.3597 247.234 32.3684 247.5 32.4436C247.766 32.5189 248.01 32.6584 248.21 32.85L247.95 33.12C247.708 32.8884 247.385 32.7595 247.05 32.76C246.721 32.7887 246.415 32.9397 246.192 33.1831C245.969 33.4265 245.845 33.7448 245.845 34.075C245.845 34.4052 245.969 34.7234 246.192 34.9668C246.415 35.2103 246.721 35.3613 247.05 35.39C247.385 35.3905 247.708 35.2615 247.95 35.03L248.21 35.3C247.897 35.5966 247.481 35.7613 247.05 35.76Z" fill="#191919"/>
<path d="M69.26 11.1H58.55V36.91H69.26V11.1Z" fill="#191919"/>
<path d="M16.77 0.400024L4.88 12.29V36.91H15.58V16.73L21.2 11.1H58.55V0.400024H16.77Z" fill="#191919"/>
<path d="M139.56 12.29V36.91H150.27V18.67L168.52 36.92H183.66L157.84 11.1H203.94V0.400024H151.45L139.56 12.29Z" fill="#191919"/>
<path d="M141.2 6.45002L135.15 0.400024H84.11L72.22 12.29V36.91H82.93V16.73L88.55 11.1H121.4L106.3 26.21H85.82V36.91H136.52V26.21H121.44L136.54 11.1L141.2 6.45002Z" fill="#191919"/>
<path d="M260.83 0.400024L235.03 26.21H250.17L275.98 0.400024H260.83Z" fill="#191919"/>
<path d="M223.19 26.21L217.57 20.58V0.400024H206.86V25.02L218.75 36.91H235.03V26.21H223.19Z" fill="#191919"/>
</g>
<defs>
<filter id="filter0_d_124_2" x="0.880005" y="0.400024" width="279.1" height="44.53" filterUnits="userSpaceOnUse" color-interpolation-filters="sRGB">
<feFlood flood-opacity="0" result="BackgroundImageFix"/>
<feColorMatrix in="SourceAlpha" type="matrix" values="0 0 0 0 0 0 0 0 0 0 0 0 0 0 0 0 0 0 127 0" result="hardAlpha"/>
<feOffset dy="4"/>
<feGaussianBlur stdDeviation="2"/>
<feComposite in2="hardAlpha" operator="out"/>
<feColorMatrix type="matrix" values="0 0 0 0 0 0 0 0 0 0 0 0 0 0 0 0 0 0 0.25 0"/>
<feBlend mode="normal" in2="BackgroundImageFix" result="effect1_dropShadow_124_2"/>
<feBlend mode="normal" in="SourceGraphic" in2="effect1_dropShadow_124_2" result="shape"/>
</filter>
</defs>
</svg>
