<svg width="354" height="64" viewBox="0 0 354 64" fill="none" xmlns="http://www.w3.org/2000/svg">
<path d="M51.41 44.68V11.75H44.81C43.9298 11.7952 43.0696 12.0294 42.2879 12.4366C41.5062 12.8438 40.8214 13.4146 40.28 14.11L33.04 22.74L14.6299 44.68H0.00994873L26.22 13.4L31.67 6.91003C33.2606 4.95884 35.2576 3.37806 37.5219 2.27789C39.7861 1.17773 42.263 0.584665 44.78 0.540039H62.58V44.68H51.41Z" fill="black"/>
<path d="M69.96 0.549805H129.86V10.4598H105.52V44.6798H94.31V10.4598H69.96V0.549805Z" fill="black"/>
<path d="M215.89 1V45.14H204.68V1H215.89Z" fill="black"/>
<path d="M148.41 0.540039V44.68H137.22V0.540039H148.41ZM185.91 17.65V0.540039H197.11V44.68H185.91V27.57H154.62V17.65H185.91Z" fill="black"/>
<path d="M272.08 33.4597V0.539699H283.28V44.6797H272.65C270.037 44.7146 267.449 44.1591 265.08 43.0543C262.711 41.9496 260.623 40.3243 258.97 38.2997L238.68 14.1197C238.143 13.422 237.46 12.8496 236.68 12.4421C235.899 12.0346 235.039 11.8017 234.16 11.7597V44.6797H222.96V0.539699H233.59C236.202 0.504064 238.788 1.0594 241.156 2.16421C243.523 3.26902 245.61 4.89472 247.26 6.9197L267.56 31.0997C268.1 31.7939 268.784 32.3639 269.563 32.7711C270.343 33.1783 271.201 33.4131 272.08 33.4597Z" fill="black"/>
<path d="M290.63 44.68V0.540039H308.43C310.947 0.584665 313.424 1.17773 315.688 2.27789C317.952 3.37806 319.949 4.95884 321.54 6.91003L326.99 13.4L353.22 44.68H338.6L320.22 22.74L312.97 14.11C312.431 13.4138 311.749 12.8425 310.968 12.4351C310.188 12.0277 309.329 11.794 308.45 11.75H301.85V44.68H290.63Z" fill="black"/>
<path d="M143.824 60.7998V52.3424H146.682C147.345 52.3424 147.888 52.4621 148.309 52.7016C148.733 52.9384 149.047 53.2591 149.25 53.6638C149.454 54.0685 149.556 54.52 149.556 55.0183C149.556 55.5167 149.454 55.9695 149.25 56.377C149.049 56.7844 148.738 57.1093 148.317 57.3516C147.896 57.5911 147.356 57.7109 146.698 57.7109H144.65V56.8023H146.665C147.12 56.8023 147.484 56.7239 147.76 56.567C148.035 56.41 148.235 56.198 148.358 55.931C148.485 55.6612 148.548 55.357 148.548 55.0183C148.548 54.6797 148.485 54.3769 148.358 54.1098C148.235 53.8428 148.034 53.6336 147.756 53.4821C147.477 53.328 147.109 53.2509 146.649 53.2509H144.848V60.7998H143.824ZM151.206 60.7998V52.3424H154.064C154.724 52.3424 155.267 52.4552 155.691 52.681C156.115 52.904 156.428 53.211 156.632 53.6019C156.836 53.9928 156.938 54.4374 156.938 54.9358C156.938 55.4341 156.836 55.8759 156.632 56.2614C156.428 56.6468 156.116 56.9496 155.695 57.1699C155.273 57.3874 154.735 57.4961 154.08 57.4961H151.767V56.5711H154.047C154.498 56.5711 154.862 56.505 155.137 56.3729C155.415 56.2407 155.616 56.0535 155.74 55.8112C155.867 55.5662 155.93 55.2744 155.93 54.9358C155.93 54.5971 155.867 54.3012 155.74 54.0479C155.613 53.7946 155.411 53.5991 155.133 53.4615C154.855 53.3211 154.487 53.2509 154.03 53.2509H152.23V60.7998H151.206ZM155.187 57.0006L157.268 60.7998H156.079L154.03 57.0006H155.187ZM165.78 56.5711C165.78 57.4631 165.619 58.2339 165.297 58.8837C164.975 59.5334 164.533 60.0344 163.971 60.3868C163.41 60.7392 162.768 60.9154 162.047 60.9154C161.326 60.9154 160.684 60.7392 160.123 60.3868C159.561 60.0344 159.119 59.5334 158.797 58.8837C158.475 58.2339 158.314 57.4631 158.314 56.5711C158.314 55.6791 158.475 54.9082 158.797 54.2585C159.119 53.6088 159.561 53.1077 160.123 52.7553C160.684 52.4029 161.326 52.2267 162.047 52.2267C162.768 52.2267 163.41 52.4029 163.971 52.7553C164.533 53.1077 164.975 53.6088 165.297 54.2585C165.619 54.9082 165.78 55.6791 165.78 56.5711ZM164.789 56.5711C164.789 55.8388 164.667 55.2207 164.422 54.7169C164.179 54.2131 163.85 53.8318 163.435 53.573C163.022 53.3142 162.559 53.1848 162.047 53.1848C161.535 53.1848 161.071 53.3142 160.655 53.573C160.242 53.8318 159.913 54.2131 159.668 54.7169C159.426 55.2207 159.305 55.8388 159.305 56.5711C159.305 57.3034 159.426 57.9215 159.668 58.4253C159.913 58.9291 160.242 59.3104 160.655 59.5692C161.071 59.828 161.535 59.9574 162.047 59.9574C162.559 59.9574 163.022 59.828 163.435 59.5692C163.85 59.3104 164.179 58.9291 164.422 58.4253C164.667 57.9215 164.789 57.3034 164.789 56.5711ZM173.284 54.9853C173.193 54.7072 173.073 54.4581 172.924 54.2379C172.779 54.0149 172.604 53.8249 172.4 53.668C172.199 53.511 171.971 53.3913 171.715 53.3087C171.458 53.2261 171.178 53.1848 170.872 53.1848C170.371 53.1848 169.915 53.3142 169.505 53.573C169.095 53.8318 168.769 54.2131 168.526 54.7169C168.284 55.2207 168.163 55.8388 168.163 56.5711C168.163 57.3034 168.286 57.9215 168.531 58.4253C168.776 58.9291 169.107 59.3104 169.526 59.5692C169.944 59.828 170.415 59.9574 170.938 59.9574C171.423 59.9574 171.849 59.8541 172.218 59.6476C172.59 59.4384 172.879 59.1438 173.086 58.7639C173.295 58.3812 173.399 57.9311 173.399 57.4135L173.713 57.4796H171.169V56.5711H174.39V57.4796C174.39 58.1761 174.242 58.7818 173.944 59.2966C173.65 59.8115 173.242 60.2106 172.722 60.4942C172.205 60.775 171.61 60.9154 170.938 60.9154C170.189 60.9154 169.531 60.7392 168.964 60.3868C168.4 60.0344 167.959 59.5334 167.643 58.8837C167.329 58.2339 167.172 57.4631 167.172 56.5711C167.172 55.9021 167.261 55.3005 167.44 54.7664C167.622 54.2296 167.878 53.7726 168.208 53.3954C168.539 53.0182 168.93 52.7292 169.381 52.5282C169.833 52.3272 170.33 52.2267 170.872 52.2267C171.318 52.2267 171.734 52.2942 172.119 52.4291C172.507 52.5612 172.853 52.7498 173.156 52.9948C173.461 53.2371 173.716 53.5276 173.92 53.8662C174.123 54.2021 174.264 54.5751 174.341 54.9853H173.284ZM176.145 60.7998V52.3424H179.002C179.663 52.3424 180.205 52.4552 180.629 52.681C181.053 52.904 181.367 53.211 181.571 53.6019C181.775 53.9928 181.876 54.4374 181.876 54.9358C181.876 55.4341 181.775 55.8759 181.571 56.2614C181.367 56.6468 181.055 56.9496 180.633 57.1699C180.212 57.3874 179.674 57.4961 179.019 57.4961H176.706V56.5711H178.986C179.437 56.5711 179.801 56.505 180.076 56.3729C180.354 56.2407 180.555 56.0535 180.679 55.8112C180.805 55.5662 180.869 55.2744 180.869 54.9358C180.869 54.5971 180.805 54.3012 180.679 54.0479C180.552 53.7946 180.35 53.5991 180.072 53.4615C179.794 53.3211 179.426 53.2509 178.969 53.2509H177.169V60.7998H176.145ZM180.125 57.0006L182.207 60.7998H181.017L178.969 57.0006H180.125ZM183.93 60.7998H182.856L185.962 52.3424H187.019L190.124 60.7998H189.051L186.523 53.6804H186.457L183.93 60.7998ZM184.326 57.4961H188.654V58.4046H184.326V57.4961ZM191.442 52.3424H192.664L195.538 59.3627H195.637L198.512 52.3424H199.734V60.7998H198.776V54.3741H198.693L196.05 60.7998H195.125L192.482 54.3741H192.4V60.7998H191.442V52.3424ZM201.787 52.3424H203.01L205.884 59.3627H205.983L208.857 52.3424H210.08V60.7998H209.122V54.3741H209.039L206.396 60.7998H205.471L202.828 54.3741H202.745V60.7998H201.787V52.3424ZM212.133 60.7998V52.3424H217.237V53.2509H213.157V56.1086H216.973V57.0171H213.157V59.8913H217.303V60.7998H212.133Z" fill="black"/>
</svg>
