<svg width="362" height="518" viewBox="0 0 362 518" fill="none" xmlns="http://www.w3.org/2000/svg">
<g opacity="0.2">
<path d="M319.67 46.1H310.25" stroke="black" stroke-width="2.05" stroke-miterlimit="10"/>
<path d="M314.96 41.39V50.81" stroke="black" stroke-width="2.05" stroke-miterlimit="10"/>
<path d="M319.67 126.95H310.25" stroke="black" stroke-width="2.05" stroke-miterlimit="10"/>
<path d="M314.96 122.24V131.65" stroke="black" stroke-width="2.05" stroke-miterlimit="10"/>
<path d="M319.67 211.99H310.25" stroke="black" stroke-width="2.05" stroke-miterlimit="10"/>
<path d="M314.96 207.28V216.7" stroke="black" stroke-width="2.05" stroke-miterlimit="10"/>
<path d="M319.67 297.04H310.25" stroke="black" stroke-width="2.05" stroke-miterlimit="10"/>
<path d="M314.96 292.33V301.74" stroke="black" stroke-width="2.05" stroke-miterlimit="10"/>
<path d="M319.67 382.08H310.25" stroke="black" stroke-width="2.05" stroke-miterlimit="10"/>
<path d="M314.96 377.37V386.79" stroke="black" stroke-width="2.05" stroke-miterlimit="10"/>
<path d="M319.67 467.13H310.25" stroke="black" stroke-width="2.05" stroke-miterlimit="10"/>
<path d="M314.96 462.42V471.83" stroke="black" stroke-width="2.05" stroke-miterlimit="10"/>
<path d="M229.87 46.1H220.45" stroke="black" stroke-width="2.05" stroke-miterlimit="10"/>
<path d="M225.16 41.39V50.81" stroke="black" stroke-width="2.05" stroke-miterlimit="10"/>
<path d="M229.87 126.95H220.45" stroke="black" stroke-width="2.05" stroke-miterlimit="10"/>
<path d="M225.16 122.24V131.65" stroke="black" stroke-width="2.05" stroke-miterlimit="10"/>
<path d="M229.87 211.99H220.45" stroke="black" stroke-width="2.05" stroke-miterlimit="10"/>
<path d="M225.16 207.28V216.7" stroke="black" stroke-width="2.05" stroke-miterlimit="10"/>
<path d="M229.87 297.04H220.45" stroke="black" stroke-width="2.05" stroke-miterlimit="10"/>
<path d="M225.16 292.33V301.74" stroke="black" stroke-width="2.05" stroke-miterlimit="10"/>
<path d="M229.87 382.08H220.45" stroke="black" stroke-width="2.05" stroke-miterlimit="10"/>
<path d="M225.16 377.37V386.79" stroke="black" stroke-width="2.05" stroke-miterlimit="10"/>
<path d="M229.87 467.13H220.45" stroke="black" stroke-width="2.05" stroke-miterlimit="10"/>
<path d="M225.16 462.42V471.83" stroke="black" stroke-width="2.05" stroke-miterlimit="10"/>
<path d="M140.07 46.1H130.65" stroke="black" stroke-width="2.05" stroke-miterlimit="10"/>
<path d="M135.36 41.39V50.81" stroke="black" stroke-width="2.05" stroke-miterlimit="10"/>
<path d="M140.07 126.95H130.65" stroke="black" stroke-width="2.05" stroke-miterlimit="10"/>
<path d="M135.36 122.24V131.65" stroke="black" stroke-width="2.05" stroke-miterlimit="10"/>
<path d="M140.07 211.99H130.65" stroke="black" stroke-width="2.05" stroke-miterlimit="10"/>
<path d="M135.36 207.28V216.7" stroke="black" stroke-width="2.05" stroke-miterlimit="10"/>
<path d="M140.07 297.04H130.65" stroke="black" stroke-width="2.05" stroke-miterlimit="10"/>
<path d="M135.36 292.33V301.74" stroke="black" stroke-width="2.05" stroke-miterlimit="10"/>
<path d="M140.07 382.08H130.65" stroke="black" stroke-width="2.05" stroke-miterlimit="10"/>
<path d="M135.36 377.37V386.79" stroke="black" stroke-width="2.05" stroke-miterlimit="10"/>
<path d="M140.07 467.13H130.65" stroke="black" stroke-width="2.05" stroke-miterlimit="10"/>
<path d="M135.36 462.42V471.83" stroke="black" stroke-width="2.05" stroke-miterlimit="10"/>
<path d="M50.27 46.1H40.85" stroke="black" stroke-width="2.05" stroke-miterlimit="10"/>
<path d="M45.5601 41.39V50.81" stroke="black" stroke-width="2.05" stroke-miterlimit="10"/>
<path d="M50.27 126.95H40.85" stroke="black" stroke-width="2.05" stroke-miterlimit="10"/>
<path d="M45.5601 122.24V131.65" stroke="black" stroke-width="2.05" stroke-miterlimit="10"/>
<path d="M50.27 211.99H40.85" stroke="black" stroke-width="2.05" stroke-miterlimit="10"/>
<path d="M45.5601 207.28V216.7" stroke="black" stroke-width="2.05" stroke-miterlimit="10"/>
<path d="M50.27 297.04H40.85" stroke="black" stroke-width="2.05" stroke-miterlimit="10"/>
<path d="M45.5601 292.33V301.74" stroke="black" stroke-width="2.05" stroke-miterlimit="10"/>
<path d="M50.27 382.08H40.85" stroke="black" stroke-width="2.05" stroke-miterlimit="10"/>
<path d="M45.5601 377.37V386.79" stroke="black" stroke-width="2.05" stroke-miterlimit="10"/>
<path d="M50.27 467.13H40.85" stroke="black" stroke-width="2.05" stroke-miterlimit="10"/>
<path d="M45.5601 462.42V471.83" stroke="black" stroke-width="2.05" stroke-miterlimit="10"/>
</g>
<g opacity="0.05">
<path d="M0.319946 46.1H5.43994" stroke="black" stroke-width="2.05" stroke-miterlimit="10"/>
<path d="M15.46 46.1H351.13" stroke="black" stroke-width="2.05" stroke-miterlimit="10" stroke-dasharray="10.02 10.02"/>
<path d="M356.14 46.1H361.26" stroke="black" stroke-width="2.05" stroke-miterlimit="10"/>
<path d="M0.319946 126.77H5.43994" stroke="black" stroke-width="2.05" stroke-miterlimit="10"/>
<path d="M15.46 126.77H351.13" stroke="black" stroke-width="2.05" stroke-miterlimit="10" stroke-dasharray="10.02 10.02"/>
<path d="M356.14 126.77H361.26" stroke="black" stroke-width="2.05" stroke-miterlimit="10"/>
<path d="M0.319946 211.92H5.43994" stroke="black" stroke-width="2.05" stroke-miterlimit="10"/>
<path d="M15.46 211.92H351.13" stroke="black" stroke-width="2.05" stroke-miterlimit="10" stroke-dasharray="10.02 10.02"/>
<path d="M356.14 211.92H361.26" stroke="black" stroke-width="2.05" stroke-miterlimit="10"/>
<path d="M0.319946 297.08H5.43994" stroke="black" stroke-width="2.05" stroke-miterlimit="10"/>
<path d="M15.46 297.08H351.13" stroke="black" stroke-width="2.05" stroke-miterlimit="10" stroke-dasharray="10.02 10.02"/>
<path d="M356.14 297.08H361.26" stroke="black" stroke-width="2.05" stroke-miterlimit="10"/>
<path d="M0.319946 382.23H5.43994" stroke="black" stroke-width="2.05" stroke-miterlimit="10"/>
<path d="M15.46 382.23H351.13" stroke="black" stroke-width="2.05" stroke-miterlimit="10" stroke-dasharray="10.02 10.02"/>
<path d="M356.14 382.23H361.26" stroke="black" stroke-width="2.05" stroke-miterlimit="10"/>
<path d="M0.319946 466.94H5.43994" stroke="black" stroke-width="2.05" stroke-miterlimit="10"/>
<path d="M15.46 466.94H351.13" stroke="black" stroke-width="2.05" stroke-miterlimit="10" stroke-dasharray="10.02 10.02"/>
<path d="M356.14 466.94H361.26" stroke="black" stroke-width="2.05" stroke-miterlimit="10"/>
<path d="M45.5601 0.109985V5.21999" stroke="black" stroke-width="2.05" stroke-miterlimit="10"/>
<path d="M45.5601 15.58V507.51" stroke="black" stroke-width="2.05" stroke-miterlimit="10" stroke-dasharray="10.36 10.36"/>
<path d="M45.5601 512.68V517.8" stroke="black" stroke-width="2.05" stroke-miterlimit="10"/>
<path d="M135.64 0.109985V5.21999" stroke="black" stroke-width="2.05" stroke-miterlimit="10"/>
<path d="M135.64 15.58V507.51" stroke="black" stroke-width="2.05" stroke-miterlimit="10" stroke-dasharray="10.36 10.36"/>
<path d="M135.64 512.68V517.8" stroke="black" stroke-width="2.05" stroke-miterlimit="10"/>
<path d="M225.28 0.109985V5.21999" stroke="black" stroke-width="2.05" stroke-miterlimit="10"/>
<path d="M225.28 15.58V507.51" stroke="black" stroke-width="2.05" stroke-miterlimit="10" stroke-dasharray="10.36 10.36"/>
<path d="M225.28 512.68V517.8" stroke="black" stroke-width="2.05" stroke-miterlimit="10"/>
<path d="M314.91 0.109985V5.21999" stroke="black" stroke-width="2.05" stroke-miterlimit="10"/>
<path d="M314.91 15.58V507.51" stroke="black" stroke-width="2.05" stroke-miterlimit="10" stroke-dasharray="10.36 10.36"/>
<path d="M314.91 512.68V517.8" stroke="black" stroke-width="2.05" stroke-miterlimit="10"/>
</g>
</svg>
