<svg id="Layer_1" data-name="Layer 1" xmlns="http://www.w3.org/2000/svg" viewBox="0 0 274.62 37"><defs><style>.cls-1{fill:#191919;}</style></defs><path class="cls-1" d="M245.36,31.6a2.52,2.52,0,1,1-2.51,2.51,2.52,2.52,0,0,1,2.51-2.51m0-.37a2.89,2.89,0,1,0,2.89,2.88,2.88,2.88,0,0,0-2.89-2.88Z"/><path class="cls-1" d="M245.32,35.82a1.71,1.71,0,1,1,1.17-3l-.26.27a1.34,1.34,0,1,0-.91,2.31,1.3,1.3,0,0,0,.91-.37l.26.28A1.71,1.71,0,0,1,245.32,35.82Z"/><rect class="cls-1" x="54.37" y="10.85" width="10.85" height="26.14"/><polygon class="cls-1" points="12.05 0 0 12.05 0 36.99 10.85 36.99 10.85 16.54 16.54 10.85 54.37 10.85 54.37 0 12.05 0"/><polygon class="cls-1" points="136.43 12.05 136.43 36.99 147.27 36.99 147.27 18.51 165.77 37 181.1 37 154.95 10.85 201.64 10.85 201.64 0 148.48 0 136.43 12.05"/><polygon class="cls-1" points="138.09 6.13 131.96 0 80.26 0 80.26 0 68.22 12.05 68.22 36.99 79.06 36.99 79.06 16.54 84.75 10.85 118.03 10.85 102.73 26.14 81.99 26.14 81.99 36.99 133.35 36.99 133.35 26.14 118.07 26.14 133.37 10.85 138.09 6.13"/><polygon class="cls-1" points="259.28 0 233.14 26.14 248.47 26.14 274.62 0 259.28 0"/><polygon class="cls-1" points="221.14 26.14 215.45 20.45 215.45 0 204.6 0 204.6 24.94 216.65 36.99 233.14 36.99 233.14 26.14 233.14 26.14 221.14 26.14"/></svg>