<svg width="38" height="38" viewBox="0 0 38 38" fill="none" xmlns="http://www.w3.org/2000/svg">
<path d="M37.88 37.6899H31.63V37.09H37.28V31.4399H37.88V37.6899Z" fill="black"/>
<path d="M23.5 37.0901H15.37V37.6901H23.5V37.0901Z" fill="black"/>
<path d="M7.22998 37.6899H0.98999V31.4399H1.57996V37.09H7.22998V37.6899Z" fill="black"/>
<path d="M1.58997 15.1699H0.98999V23.2999H1.58997V15.1699Z" fill="black"/>
<path d="M1.57996 7.04004H0.98999V0.790039H7.22998V1.39008H1.57996V7.04004Z" fill="black"/>
<path d="M23.5 0.790039H15.37V1.39008H23.5V0.790039Z" fill="black"/>
<path d="M37.88 7.04004H37.28V1.39008H31.63V0.790039H37.88V7.04004Z" fill="black"/>
<path d="M37.88 15.1799H37.28V23.3099H37.88V15.1799Z" fill="black"/>
<path d="M19.76 10.4399H19.3101V26.84H19.76V10.4399Z" fill="black"/>
<path d="M27.9301 18.3301H11.53V18.7801H27.9301V18.3301Z" fill="black"/>
</svg>
