<svg id="Layer_1" data-name="Layer 1" xmlns="http://www.w3.org/2000/svg" viewBox="0 0 300 320"><defs><style>.cls-1,.cls-2,.cls-3{fill:none;stroke:#707070;stroke-miterlimit:10;stroke-width:0.52px;}.cls-2{stroke-dasharray:2.25 2.25;}.cls-3{stroke-dasharray:2.25 2.25;}</style></defs><polyline class="cls-1" points="34.58 38.6 34.58 39.73 33.46 39.73"/><line class="cls-2" x1="31.22" y1="39.73" x2="14.37" y2="39.73"/><polyline class="cls-1" points="13.25 39.73 12.13 39.73 12.13 38.6"/><line class="cls-2" x1="12.12" y1="36.36" x2="12.12" y2="19.51"/><polyline class="cls-1" points="12.13 18.39 12.13 17.27 13.25 17.27"/><line class="cls-2" x1="15.49" y1="17.27" x2="32.34" y2="17.27"/><polyline class="cls-1" points="33.46 17.27 34.58 17.27 34.58 18.39"/><line class="cls-2" x1="34.58" y1="20.63" x2="34.58" y2="37.48"/><polyline class="cls-1" points="62.62 38.6 62.62 39.73 61.5 39.73"/><line class="cls-2" x1="59.25" y1="39.73" x2="42.41" y2="39.73"/><polyline class="cls-1" points="41.29 39.73 40.16 39.73 40.16 38.6"/><line class="cls-2" x1="40.16" y1="36.36" x2="40.16" y2="19.51"/><polyline class="cls-1" points="40.16 18.39 40.16 17.27 41.29 17.27"/><line class="cls-2" x1="43.53" y1="17.27" x2="60.38" y2="17.27"/><polyline class="cls-1" points="61.5 17.27 62.62 17.27 62.62 18.39"/><line class="cls-2" x1="62.62" y1="20.63" x2="62.62" y2="37.48"/><polyline class="cls-1" points="90.66 38.6 90.66 39.73 89.54 39.73"/><line class="cls-2" x1="87.29" y1="39.73" x2="70.45" y2="39.73"/><polyline class="cls-1" points="69.33 39.73 68.2 39.73 68.2 38.6"/><line class="cls-2" x1="68.2" y1="36.36" x2="68.2" y2="19.51"/><polyline class="cls-1" points="68.2 18.39 68.2 17.27 69.33 17.27"/><line class="cls-2" x1="71.57" y1="17.27" x2="88.42" y2="17.27"/><polyline class="cls-1" points="89.54 17.27 90.66 17.27 90.66 18.39"/><line class="cls-2" x1="90.66" y1="20.63" x2="90.66" y2="37.48"/><polyline class="cls-1" points="118.7 38.6 118.7 39.73 117.58 39.73"/><line class="cls-2" x1="115.33" y1="39.73" x2="98.49" y2="39.73"/><polyline class="cls-1" points="97.36 39.73 96.24 39.73 96.24 38.6"/><line class="cls-2" x1="96.24" y1="36.36" x2="96.24" y2="19.51"/><polyline class="cls-1" points="96.24 18.39 96.24 17.27 97.36 17.27"/><line class="cls-2" x1="99.61" y1="17.27" x2="116.46" y2="17.27"/><polyline class="cls-1" points="117.58 17.27 118.7 17.27 118.7 18.39"/><line class="cls-2" x1="118.7" y1="20.63" x2="118.7" y2="37.48"/><polyline class="cls-1" points="146.74 38.6 146.74 39.73 145.62 39.73"/><line class="cls-2" x1="143.37" y1="39.73" x2="126.53" y2="39.73"/><polyline class="cls-1" points="125.4 39.73 124.28 39.73 124.28 38.6"/><line class="cls-2" x1="124.28" y1="36.36" x2="124.28" y2="19.51"/><polyline class="cls-1" points="124.28 18.39 124.28 17.27 125.4 17.27"/><line class="cls-2" x1="127.65" y1="17.27" x2="144.49" y2="17.27"/><polyline class="cls-1" points="145.62 17.27 146.74 17.27 146.74 18.39"/><line class="cls-2" x1="146.74" y1="20.63" x2="146.74" y2="37.48"/><polyline class="cls-1" points="174.96 38.83 174.96 39.95 173.84 39.95"/><line class="cls-2" x1="171.59" y1="39.95" x2="154.74" y2="39.95"/><polyline class="cls-1" points="153.62 39.95 152.5 39.95 152.5 38.83"/><line class="cls-2" x1="152.5" y1="36.58" x2="152.5" y2="19.74"/><polyline class="cls-1" points="152.5 18.61 152.5 17.49 153.62 17.49"/><line class="cls-2" x1="155.87" y1="17.49" x2="172.71" y2="17.49"/><polyline class="cls-1" points="173.84 17.49 174.96 17.49 174.96 18.61"/><line class="cls-2" x1="174.96" y1="20.86" x2="174.96" y2="37.7"/><polyline class="cls-1" points="203.18 39.05 203.18 40.17 202.05 40.17"/><line class="cls-2" x1="199.81" y1="40.17" x2="182.96" y2="40.17"/><polyline class="cls-1" points="181.84 40.17 180.72 40.17 180.72 39.05"/><line class="cls-2" x1="180.72" y1="36.81" x2="180.72" y2="19.96"/><polyline class="cls-1" points="180.72 18.84 180.72 17.71 181.84 17.71"/><line class="cls-2" x1="184.09" y1="17.72" x2="200.93" y2="17.72"/><polyline class="cls-1" points="202.05 17.71 203.18 17.71 203.18 18.84"/><line class="cls-2" x1="203.18" y1="21.08" x2="203.18" y2="37.93"/><polyline class="cls-1" points="34.58 67.75 34.58 68.87 33.46 68.87"/><line class="cls-2" x1="31.22" y1="68.87" x2="14.37" y2="68.87"/><polyline class="cls-1" points="13.25 68.87 12.13 68.87 12.13 67.75"/><line class="cls-2" x1="12.12" y1="65.5" x2="12.12" y2="48.66"/><polyline class="cls-1" points="12.13 47.54 12.13 46.41 13.25 46.41"/><line class="cls-2" x1="15.49" y1="46.41" x2="32.34" y2="46.41"/><polyline class="cls-1" points="33.46 46.41 34.58 46.41 34.58 47.54"/><line class="cls-2" x1="34.58" y1="49.78" x2="34.58" y2="66.63"/><polyline class="cls-1" points="62.62 67.75 62.62 68.87 61.5 68.87"/><line class="cls-2" x1="59.25" y1="68.87" x2="42.41" y2="68.87"/><polyline class="cls-1" points="41.29 68.87 40.16 68.87 40.16 67.75"/><line class="cls-2" x1="40.16" y1="65.5" x2="40.16" y2="48.66"/><polyline class="cls-1" points="40.16 47.54 40.16 46.41 41.29 46.41"/><line class="cls-2" x1="43.53" y1="46.41" x2="60.38" y2="46.41"/><polyline class="cls-1" points="61.5 46.41 62.62 46.41 62.62 47.54"/><line class="cls-2" x1="62.62" y1="49.78" x2="62.62" y2="66.63"/><polyline class="cls-1" points="90.66 67.75 90.66 68.87 89.54 68.87"/><line class="cls-2" x1="87.29" y1="68.87" x2="70.45" y2="68.87"/><polyline class="cls-1" points="69.33 68.87 68.2 68.87 68.2 67.75"/><line class="cls-2" x1="68.2" y1="65.5" x2="68.2" y2="48.66"/><polyline class="cls-1" points="68.2 47.54 68.2 46.41 69.33 46.41"/><line class="cls-2" x1="71.57" y1="46.41" x2="88.42" y2="46.41"/><polyline class="cls-1" points="89.54 46.41 90.66 46.41 90.66 47.54"/><line class="cls-2" x1="90.66" y1="49.78" x2="90.66" y2="66.63"/><polyline class="cls-1" points="118.7 67.75 118.7 68.87 117.58 68.87"/><line class="cls-2" x1="115.33" y1="68.87" x2="98.49" y2="68.87"/><polyline class="cls-1" points="97.36 68.87 96.24 68.87 96.24 67.75"/><line class="cls-2" x1="96.24" y1="65.5" x2="96.24" y2="48.66"/><polyline class="cls-1" points="96.24 47.54 96.24 46.41 97.36 46.41"/><line class="cls-2" x1="99.61" y1="46.41" x2="116.46" y2="46.41"/><polyline class="cls-1" points="117.58 46.41 118.7 46.41 118.7 47.54"/><line class="cls-2" x1="118.7" y1="49.78" x2="118.7" y2="66.63"/><polyline class="cls-1" points="146.74 67.75 146.74 68.87 145.62 68.87"/><line class="cls-2" x1="143.37" y1="68.87" x2="126.53" y2="68.87"/><polyline class="cls-1" points="125.4 68.87 124.28 68.87 124.28 67.75"/><line class="cls-2" x1="124.28" y1="65.5" x2="124.28" y2="48.66"/><polyline class="cls-1" points="124.28 47.54 124.28 46.41 125.4 46.41"/><line class="cls-2" x1="127.65" y1="46.41" x2="144.49" y2="46.41"/><polyline class="cls-1" points="145.62 46.41 146.74 46.41 146.74 47.54"/><line class="cls-2" x1="146.74" y1="49.78" x2="146.74" y2="66.63"/><polyline class="cls-1" points="174.96 67.98 174.96 69.1 173.84 69.1"/><line class="cls-2" x1="171.59" y1="69.1" x2="154.74" y2="69.1"/><polyline class="cls-1" points="153.62 69.1 152.5 69.1 152.5 67.98"/><line class="cls-2" x1="152.5" y1="65.73" x2="152.5" y2="48.88"/><polyline class="cls-1" points="152.5 47.76 152.5 46.64 153.62 46.64"/><line class="cls-2" x1="155.87" y1="46.64" x2="172.71" y2="46.64"/><polyline class="cls-1" points="173.84 46.64 174.96 46.64 174.96 47.76"/><line class="cls-2" x1="174.96" y1="50.01" x2="174.96" y2="66.85"/><polyline class="cls-1" points="203.18 68.2 203.18 69.32 202.05 69.32"/><line class="cls-2" x1="199.81" y1="69.32" x2="182.96" y2="69.32"/><polyline class="cls-1" points="181.84 69.32 180.72 69.32 180.72 68.2"/><line class="cls-2" x1="180.72" y1="65.95" x2="180.72" y2="49.11"/><polyline class="cls-1" points="180.72 47.99 180.72 46.86 181.84 46.86"/><line class="cls-2" x1="184.09" y1="46.86" x2="200.93" y2="46.86"/><polyline class="cls-1" points="202.05 46.86 203.18 46.86 203.18 47.99"/><line class="cls-2" x1="203.18" y1="50.23" x2="203.18" y2="67.08"/><polyline class="cls-1" points="34.58 96.9 34.58 98.02 33.46 98.02"/><line class="cls-2" x1="31.22" y1="98.02" x2="14.37" y2="98.02"/><polyline class="cls-1" points="13.25 98.02 12.13 98.02 12.13 96.9"/><line class="cls-2" x1="12.12" y1="94.65" x2="12.12" y2="77.81"/><polyline class="cls-1" points="12.13 76.69 12.13 75.56 13.25 75.56"/><line class="cls-2" x1="15.49" y1="75.56" x2="32.34" y2="75.56"/><polyline class="cls-1" points="33.46 75.56 34.58 75.56 34.58 76.69"/><line class="cls-2" x1="34.58" y1="78.93" x2="34.58" y2="95.78"/><polyline class="cls-1" points="62.62 96.9 62.62 98.02 61.5 98.02"/><line class="cls-2" x1="59.25" y1="98.02" x2="42.41" y2="98.02"/><polyline class="cls-1" points="41.29 98.02 40.16 98.02 40.16 96.9"/><line class="cls-2" x1="40.16" y1="94.65" x2="40.16" y2="77.81"/><polyline class="cls-1" points="40.16 76.69 40.16 75.56 41.29 75.56"/><line class="cls-2" x1="43.53" y1="75.56" x2="60.38" y2="75.56"/><polyline class="cls-1" points="61.5 75.56 62.62 75.56 62.62 76.69"/><line class="cls-2" x1="62.62" y1="78.93" x2="62.62" y2="95.78"/><polyline class="cls-1" points="90.66 96.9 90.66 98.02 89.54 98.02"/><line class="cls-2" x1="87.29" y1="98.02" x2="70.45" y2="98.02"/><polyline class="cls-1" points="69.33 98.02 68.2 98.02 68.2 96.9"/><line class="cls-2" x1="68.2" y1="94.65" x2="68.2" y2="77.81"/><polyline class="cls-1" points="68.2 76.69 68.2 75.56 69.33 75.56"/><line class="cls-2" x1="71.57" y1="75.56" x2="88.42" y2="75.56"/><polyline class="cls-1" points="89.54 75.56 90.66 75.56 90.66 76.69"/><line class="cls-2" x1="90.66" y1="78.93" x2="90.66" y2="95.78"/><polyline class="cls-1" points="118.7 96.9 118.7 98.02 117.58 98.02"/><line class="cls-2" x1="115.33" y1="98.02" x2="98.49" y2="98.02"/><polyline class="cls-1" points="97.36 98.02 96.24 98.02 96.24 96.9"/><line class="cls-2" x1="96.24" y1="94.65" x2="96.24" y2="77.81"/><polyline class="cls-1" points="96.24 76.69 96.24 75.56 97.36 75.56"/><line class="cls-2" x1="99.61" y1="75.56" x2="116.46" y2="75.56"/><polyline class="cls-1" points="117.58 75.56 118.7 75.56 118.7 76.69"/><line class="cls-2" x1="118.7" y1="78.93" x2="118.7" y2="95.78"/><polyline class="cls-1" points="146.74 96.9 146.74 98.02 145.62 98.02"/><line class="cls-2" x1="143.37" y1="98.02" x2="126.53" y2="98.02"/><polyline class="cls-1" points="125.4 98.02 124.28 98.02 124.28 96.9"/><line class="cls-2" x1="124.28" y1="94.65" x2="124.28" y2="77.81"/><polyline class="cls-1" points="124.28 76.69 124.28 75.56 125.4 75.56"/><line class="cls-2" x1="127.65" y1="75.56" x2="144.49" y2="75.56"/><polyline class="cls-1" points="145.62 75.56 146.74 75.56 146.74 76.69"/><line class="cls-2" x1="146.74" y1="78.93" x2="146.74" y2="95.78"/><polyline class="cls-1" points="174.96 97.12 174.96 98.25 173.84 98.25"/><line class="cls-2" x1="171.59" y1="98.25" x2="154.74" y2="98.25"/><polyline class="cls-1" points="153.62 98.25 152.5 98.25 152.5 97.12"/><line class="cls-2" x1="152.5" y1="94.88" x2="152.5" y2="78.03"/><polyline class="cls-1" points="152.5 76.91 152.5 75.79 153.62 75.79"/><line class="cls-2" x1="155.87" y1="75.79" x2="172.71" y2="75.79"/><polyline class="cls-1" points="173.84 75.79 174.96 75.79 174.96 76.91"/><line class="cls-2" x1="174.96" y1="79.16" x2="174.96" y2="96"/><polyline class="cls-1" points="203.18 97.35 203.18 98.47 202.05 98.47"/><line class="cls-2" x1="199.81" y1="98.47" x2="182.96" y2="98.47"/><polyline class="cls-1" points="181.84 98.47 180.72 98.47 180.72 97.35"/><line class="cls-2" x1="180.72" y1="95.1" x2="180.72" y2="78.26"/><polyline class="cls-1" points="180.72 77.14 180.72 76.01 181.84 76.01"/><line class="cls-2" x1="184.09" y1="76.01" x2="200.93" y2="76.01"/><polyline class="cls-1" points="202.05 76.01 203.18 76.01 203.18 77.14"/><line class="cls-2" x1="203.18" y1="79.38" x2="203.18" y2="96.23"/><polyline class="cls-1" points="34.58 126.05 34.58 127.17 33.46 127.17"/><line class="cls-2" x1="31.22" y1="127.17" x2="14.37" y2="127.17"/><polyline class="cls-1" points="13.25 127.17 12.13 127.17 12.13 126.05"/><line class="cls-2" x1="12.12" y1="123.8" x2="12.12" y2="106.96"/><polyline class="cls-1" points="12.13 105.83 12.13 104.71 13.25 104.71"/><line class="cls-2" x1="15.49" y1="104.71" x2="32.34" y2="104.71"/><polyline class="cls-1" points="33.46 104.71 34.58 104.71 34.58 105.83"/><line class="cls-2" x1="34.58" y1="108.08" x2="34.58" y2="124.92"/><polyline class="cls-1" points="62.62 126.05 62.62 127.17 61.5 127.17"/><line class="cls-2" x1="59.25" y1="127.17" x2="42.41" y2="127.17"/><polyline class="cls-1" points="41.29 127.17 40.16 127.17 40.16 126.05"/><line class="cls-2" x1="40.16" y1="123.8" x2="40.16" y2="106.96"/><polyline class="cls-1" points="40.16 105.83 40.16 104.71 41.29 104.71"/><line class="cls-2" x1="43.53" y1="104.71" x2="60.38" y2="104.71"/><polyline class="cls-1" points="61.5 104.71 62.62 104.71 62.62 105.83"/><line class="cls-2" x1="62.62" y1="108.08" x2="62.62" y2="124.92"/><polyline class="cls-1" points="90.66 126.05 90.66 127.17 89.54 127.17"/><line class="cls-2" x1="87.29" y1="127.17" x2="70.45" y2="127.17"/><polyline class="cls-1" points="69.33 127.17 68.2 127.17 68.2 126.05"/><line class="cls-2" x1="68.2" y1="123.8" x2="68.2" y2="106.96"/><polyline class="cls-1" points="68.2 105.83 68.2 104.71 69.33 104.71"/><line class="cls-2" x1="71.57" y1="104.71" x2="88.42" y2="104.71"/><polyline class="cls-1" points="89.54 104.71 90.66 104.71 90.66 105.83"/><line class="cls-2" x1="90.66" y1="108.08" x2="90.66" y2="124.92"/><polyline class="cls-1" points="118.7 126.05 118.7 127.17 117.58 127.17"/><line class="cls-2" x1="115.33" y1="127.17" x2="98.49" y2="127.17"/><polyline class="cls-1" points="97.36 127.17 96.24 127.17 96.24 126.05"/><line class="cls-2" x1="96.24" y1="123.8" x2="96.24" y2="106.96"/><polyline class="cls-1" points="96.24 105.83 96.24 104.71 97.36 104.71"/><line class="cls-2" x1="99.61" y1="104.71" x2="116.46" y2="104.71"/><polyline class="cls-1" points="117.58 104.71 118.7 104.71 118.7 105.83"/><line class="cls-2" x1="118.7" y1="108.08" x2="118.7" y2="124.92"/><polyline class="cls-1" points="146.74 126.05 146.74 127.17 145.62 127.17"/><line class="cls-2" x1="143.37" y1="127.17" x2="126.53" y2="127.17"/><polyline class="cls-1" points="125.4 127.17 124.28 127.17 124.28 126.05"/><line class="cls-2" x1="124.28" y1="123.8" x2="124.28" y2="106.96"/><polyline class="cls-1" points="124.28 105.83 124.28 104.71 125.4 104.71"/><line class="cls-2" x1="127.65" y1="104.71" x2="144.49" y2="104.71"/><polyline class="cls-1" points="145.62 104.71 146.74 104.71 146.74 105.83"/><line class="cls-2" x1="146.74" y1="108.08" x2="146.74" y2="124.92"/><polyline class="cls-1" points="174.96 126.27 174.96 127.39 173.84 127.39"/><line class="cls-2" x1="171.59" y1="127.4" x2="154.74" y2="127.4"/><polyline class="cls-1" points="153.62 127.39 152.5 127.39 152.5 126.27"/><line class="cls-2" x1="152.5" y1="124.03" x2="152.5" y2="107.18"/><polyline class="cls-1" points="152.5 106.06 152.5 104.94 153.62 104.94"/><line class="cls-2" x1="155.87" y1="104.94" x2="172.71" y2="104.94"/><polyline class="cls-1" points="173.84 104.94 174.96 104.94 174.96 106.06"/><line class="cls-2" x1="174.96" y1="108.3" x2="174.96" y2="125.15"/><polyline class="cls-1" points="203.18 126.5 203.18 127.62 202.05 127.62"/><line class="cls-2" x1="199.81" y1="127.62" x2="182.96" y2="127.62"/><polyline class="cls-1" points="181.84 127.62 180.72 127.62 180.72 126.5"/><line class="cls-2" x1="180.72" y1="124.25" x2="180.72" y2="107.41"/><polyline class="cls-1" points="180.72 106.28 180.72 105.16 181.84 105.16"/><line class="cls-2" x1="184.09" y1="105.16" x2="200.93" y2="105.16"/><polyline class="cls-1" points="202.05 105.16 203.18 105.16 203.18 106.28"/><line class="cls-2" x1="203.18" y1="108.53" x2="203.18" y2="125.37"/><polyline class="cls-1" points="34.58 155.2 34.58 156.32 33.46 156.32"/><line class="cls-2" x1="31.22" y1="156.32" x2="14.37" y2="156.32"/><polyline class="cls-1" points="13.25 156.32 12.13 156.32 12.13 155.2"/><line class="cls-2" x1="12.12" y1="152.95" x2="12.12" y2="136.11"/><polyline class="cls-1" points="12.13 134.98 12.13 133.86 13.25 133.86"/><line class="cls-2" x1="15.49" y1="133.86" x2="32.34" y2="133.86"/><polyline class="cls-1" points="33.46 133.86 34.58 133.86 34.58 134.98"/><line class="cls-2" x1="34.58" y1="137.23" x2="34.58" y2="154.07"/><polyline class="cls-1" points="62.62 155.2 62.62 156.32 61.5 156.32"/><line class="cls-2" x1="59.25" y1="156.32" x2="42.41" y2="156.32"/><polyline class="cls-1" points="41.29 156.32 40.16 156.32 40.16 155.2"/><line class="cls-2" x1="40.16" y1="152.95" x2="40.16" y2="136.11"/><polyline class="cls-1" points="40.16 134.98 40.16 133.86 41.29 133.86"/><line class="cls-2" x1="43.53" y1="133.86" x2="60.38" y2="133.86"/><polyline class="cls-1" points="61.5 133.86 62.62 133.86 62.62 134.98"/><line class="cls-2" x1="62.62" y1="137.23" x2="62.62" y2="154.07"/><polyline class="cls-1" points="90.66 155.2 90.66 156.32 89.54 156.32"/><line class="cls-2" x1="87.29" y1="156.32" x2="70.45" y2="156.32"/><polyline class="cls-1" points="69.33 156.32 68.2 156.32 68.2 155.2"/><line class="cls-2" x1="68.2" y1="152.95" x2="68.2" y2="136.11"/><polyline class="cls-1" points="68.2 134.98 68.2 133.86 69.33 133.86"/><line class="cls-2" x1="71.57" y1="133.86" x2="88.42" y2="133.86"/><polyline class="cls-1" points="89.54 133.86 90.66 133.86 90.66 134.98"/><line class="cls-2" x1="90.66" y1="137.23" x2="90.66" y2="154.07"/><polyline class="cls-1" points="118.7 155.2 118.7 156.32 117.58 156.32"/><line class="cls-2" x1="115.33" y1="156.32" x2="98.49" y2="156.32"/><polyline class="cls-1" points="97.36 156.32 96.24 156.32 96.24 155.2"/><line class="cls-2" x1="96.24" y1="152.95" x2="96.24" y2="136.11"/><polyline class="cls-1" points="96.24 134.98 96.24 133.86 97.36 133.86"/><line class="cls-2" x1="99.61" y1="133.86" x2="116.46" y2="133.86"/><polyline class="cls-1" points="117.58 133.86 118.7 133.86 118.7 134.98"/><line class="cls-2" x1="118.7" y1="137.23" x2="118.7" y2="154.07"/><polyline class="cls-1" points="146.74 155.2 146.74 156.32 145.62 156.32"/><line class="cls-2" x1="143.37" y1="156.32" x2="126.53" y2="156.32"/><polyline class="cls-1" points="125.4 156.32 124.28 156.32 124.28 155.2"/><line class="cls-2" x1="124.28" y1="152.95" x2="124.28" y2="136.11"/><polyline class="cls-1" points="124.28 134.98 124.28 133.86 125.4 133.86"/><line class="cls-2" x1="127.65" y1="133.86" x2="144.49" y2="133.86"/><polyline class="cls-1" points="145.62 133.86 146.74 133.86 146.74 134.98"/><line class="cls-2" x1="146.74" y1="137.23" x2="146.74" y2="154.07"/><polyline class="cls-1" points="174.96 155.42 174.96 156.54 173.84 156.54"/><line class="cls-2" x1="171.59" y1="156.54" x2="154.74" y2="156.54"/><polyline class="cls-1" points="153.62 156.54 152.5 156.54 152.5 155.42"/><line class="cls-2" x1="152.5" y1="153.17" x2="152.5" y2="136.33"/><polyline class="cls-1" points="152.5 135.21 152.5 134.08 153.62 134.08"/><line class="cls-2" x1="155.87" y1="134.08" x2="172.71" y2="134.08"/><polyline class="cls-1" points="173.84 134.08 174.96 134.08 174.96 135.21"/><line class="cls-2" x1="174.96" y1="137.45" x2="174.96" y2="154.3"/><polyline class="cls-1" points="203.18 155.65 203.18 156.77 202.05 156.77"/><line class="cls-2" x1="199.81" y1="156.77" x2="182.96" y2="156.77"/><polyline class="cls-1" points="181.84 156.77 180.72 156.77 180.72 155.65"/><line class="cls-2" x1="180.72" y1="153.4" x2="180.72" y2="136.55"/><polyline class="cls-1" points="180.72 135.43 180.72 134.31 181.84 134.31"/><line class="cls-2" x1="184.09" y1="134.31" x2="200.93" y2="134.31"/><polyline class="cls-1" points="202.05 134.31 203.18 134.31 203.18 135.43"/><line class="cls-2" x1="203.18" y1="137.68" x2="203.18" y2="154.52"/><polyline class="cls-1" points="34.58 184.34 34.58 185.47 33.46 185.47"/><line class="cls-2" x1="31.22" y1="185.47" x2="14.37" y2="185.47"/><polyline class="cls-1" points="13.25 185.47 12.13 185.47 12.13 184.34"/><line class="cls-2" x1="12.12" y1="182.1" x2="12.12" y2="165.25"/><polyline class="cls-1" points="12.13 164.13 12.13 163.01 13.25 163.01"/><line class="cls-2" x1="15.49" y1="163.01" x2="32.34" y2="163.01"/><polyline class="cls-1" points="33.46 163.01 34.58 163.01 34.58 164.13"/><line class="cls-2" x1="34.58" y1="166.38" x2="34.58" y2="183.22"/><polyline class="cls-1" points="62.62 184.34 62.62 185.47 61.5 185.47"/><line class="cls-2" x1="59.25" y1="185.47" x2="42.41" y2="185.47"/><polyline class="cls-1" points="41.29 185.47 40.16 185.47 40.16 184.34"/><line class="cls-2" x1="40.16" y1="182.1" x2="40.16" y2="165.25"/><polyline class="cls-1" points="40.16 164.13 40.16 163.01 41.29 163.01"/><line class="cls-2" x1="43.53" y1="163.01" x2="60.38" y2="163.01"/><polyline class="cls-1" points="61.5 163.01 62.62 163.01 62.62 164.13"/><line class="cls-2" x1="62.62" y1="166.38" x2="62.62" y2="183.22"/><polyline class="cls-1" points="90.66 184.34 90.66 185.47 89.54 185.47"/><line class="cls-2" x1="87.29" y1="185.47" x2="70.45" y2="185.47"/><polyline class="cls-1" points="69.33 185.47 68.2 185.47 68.2 184.34"/><line class="cls-2" x1="68.2" y1="182.1" x2="68.2" y2="165.25"/><polyline class="cls-1" points="68.2 164.13 68.2 163.01 69.33 163.01"/><line class="cls-2" x1="71.57" y1="163.01" x2="88.42" y2="163.01"/><polyline class="cls-1" points="89.54 163.01 90.66 163.01 90.66 164.13"/><line class="cls-2" x1="90.66" y1="166.38" x2="90.66" y2="183.22"/><polyline class="cls-1" points="118.7 184.34 118.7 185.47 117.58 185.47"/><line class="cls-2" x1="115.33" y1="185.47" x2="98.49" y2="185.47"/><polyline class="cls-1" points="97.36 185.47 96.24 185.47 96.24 184.34"/><line class="cls-2" x1="96.24" y1="182.1" x2="96.24" y2="165.25"/><polyline class="cls-1" points="96.24 164.13 96.24 163.01 97.36 163.01"/><line class="cls-2" x1="99.61" y1="163.01" x2="116.46" y2="163.01"/><polyline class="cls-1" points="117.58 163.01 118.7 163.01 118.7 164.13"/><line class="cls-2" x1="118.7" y1="166.38" x2="118.7" y2="183.22"/><polyline class="cls-1" points="146.74 184.34 146.74 185.47 145.62 185.47"/><line class="cls-2" x1="143.37" y1="185.47" x2="126.53" y2="185.47"/><polyline class="cls-1" points="125.4 185.47 124.28 185.47 124.28 184.34"/><line class="cls-2" x1="124.28" y1="182.1" x2="124.28" y2="165.25"/><polyline class="cls-1" points="124.28 164.13 124.28 163.01 125.4 163.01"/><line class="cls-2" x1="127.65" y1="163.01" x2="144.49" y2="163.01"/><polyline class="cls-1" points="145.62 163.01 146.74 163.01 146.74 164.13"/><line class="cls-2" x1="146.74" y1="166.38" x2="146.74" y2="183.22"/><polyline class="cls-1" points="174.96 184.57 174.96 185.69 173.84 185.69"/><line class="cls-2" x1="171.59" y1="185.69" x2="154.74" y2="185.69"/><polyline class="cls-1" points="153.62 185.69 152.5 185.69 152.5 184.57"/><line class="cls-2" x1="152.5" y1="182.32" x2="152.5" y2="165.48"/><polyline class="cls-1" points="152.5 164.35 152.5 163.23 153.62 163.23"/><line class="cls-2" x1="155.87" y1="163.23" x2="172.71" y2="163.23"/><polyline class="cls-1" points="173.84 163.23 174.96 163.23 174.96 164.35"/><line class="cls-2" x1="174.96" y1="166.6" x2="174.96" y2="183.45"/><polyline class="cls-1" points="203.18 184.79 203.18 185.92 202.05 185.92"/><line class="cls-2" x1="199.81" y1="185.92" x2="182.96" y2="185.92"/><polyline class="cls-1" points="181.84 185.92 180.72 185.92 180.72 184.79"/><line class="cls-2" x1="180.72" y1="182.55" x2="180.72" y2="165.7"/><polyline class="cls-1" points="180.72 164.58 180.72 163.46 181.84 163.46"/><line class="cls-2" x1="184.09" y1="163.46" x2="200.93" y2="163.46"/><polyline class="cls-1" points="202.05 163.46 203.18 163.46 203.18 164.58"/><line class="cls-2" x1="203.18" y1="166.83" x2="203.18" y2="183.67"/><polyline class="cls-1" points="34.58 213.49 34.58 214.62 33.46 214.62"/><line class="cls-2" x1="31.22" y1="214.62" x2="14.37" y2="214.62"/><polyline class="cls-1" points="13.25 214.62 12.13 214.62 12.13 213.49"/><line class="cls-2" x1="12.12" y1="211.25" x2="12.12" y2="194.4"/><polyline class="cls-1" points="12.13 193.28 12.13 192.16 13.25 192.16"/><line class="cls-2" x1="15.49" y1="192.16" x2="32.34" y2="192.16"/><polyline class="cls-1" points="33.46 192.16 34.58 192.16 34.58 193.28"/><line class="cls-2" x1="34.58" y1="195.52" x2="34.58" y2="212.37"/><polyline class="cls-1" points="62.62 213.49 62.62 214.62 61.5 214.62"/><line class="cls-2" x1="59.25" y1="214.62" x2="42.41" y2="214.62"/><polyline class="cls-1" points="41.29 214.62 40.16 214.62 40.16 213.49"/><line class="cls-2" x1="40.16" y1="211.25" x2="40.16" y2="194.4"/><polyline class="cls-1" points="40.16 193.28 40.16 192.16 41.29 192.16"/><line class="cls-2" x1="43.53" y1="192.16" x2="60.38" y2="192.16"/><polyline class="cls-1" points="61.5 192.16 62.62 192.16 62.62 193.28"/><line class="cls-2" x1="62.62" y1="195.52" x2="62.62" y2="212.37"/><polyline class="cls-1" points="90.66 213.49 90.66 214.62 89.54 214.62"/><line class="cls-2" x1="87.29" y1="214.62" x2="70.45" y2="214.62"/><polyline class="cls-1" points="69.33 214.62 68.2 214.62 68.2 213.49"/><line class="cls-2" x1="68.2" y1="211.25" x2="68.2" y2="194.4"/><polyline class="cls-1" points="68.2 193.28 68.2 192.16 69.33 192.16"/><line class="cls-2" x1="71.57" y1="192.16" x2="88.42" y2="192.16"/><polyline class="cls-1" points="89.54 192.16 90.66 192.16 90.66 193.28"/><line class="cls-2" x1="90.66" y1="195.52" x2="90.66" y2="212.37"/><polyline class="cls-1" points="118.7 213.49 118.7 214.62 117.58 214.62"/><line class="cls-2" x1="115.33" y1="214.62" x2="98.49" y2="214.62"/><polyline class="cls-1" points="97.36 214.62 96.24 214.62 96.24 213.49"/><line class="cls-2" x1="96.24" y1="211.25" x2="96.24" y2="194.4"/><polyline class="cls-1" points="96.24 193.28 96.24 192.16 97.36 192.16"/><line class="cls-2" x1="99.61" y1="192.16" x2="116.46" y2="192.16"/><polyline class="cls-1" points="117.58 192.16 118.7 192.16 118.7 193.28"/><line class="cls-2" x1="118.7" y1="195.52" x2="118.7" y2="212.37"/><polyline class="cls-1" points="146.74 213.49 146.74 214.62 145.62 214.62"/><line class="cls-2" x1="143.37" y1="214.62" x2="126.53" y2="214.62"/><polyline class="cls-1" points="125.4 214.62 124.28 214.62 124.28 213.49"/><line class="cls-2" x1="124.28" y1="211.25" x2="124.28" y2="194.4"/><polyline class="cls-1" points="124.28 193.28 124.28 192.16 125.4 192.16"/><line class="cls-2" x1="127.65" y1="192.16" x2="144.49" y2="192.16"/><polyline class="cls-1" points="145.62 192.16 146.74 192.16 146.74 193.28"/><line class="cls-2" x1="146.74" y1="195.52" x2="146.74" y2="212.37"/><polyline class="cls-1" points="174.96 213.72 174.96 214.84 173.84 214.84"/><line class="cls-2" x1="171.59" y1="214.84" x2="154.74" y2="214.84"/><polyline class="cls-1" points="153.62 214.84 152.5 214.84 152.5 213.72"/><line class="cls-2" x1="152.5" y1="211.47" x2="152.5" y2="194.63"/><polyline class="cls-1" points="152.5 193.5 152.5 192.38 153.62 192.38"/><line class="cls-2" x1="155.87" y1="192.38" x2="172.71" y2="192.38"/><polyline class="cls-1" points="173.84 192.38 174.96 192.38 174.96 193.5"/><line class="cls-2" x1="174.96" y1="195.75" x2="174.96" y2="212.59"/><polyline class="cls-1" points="203.18 213.94 203.18 215.06 202.05 215.06"/><line class="cls-2" x1="199.81" y1="215.06" x2="182.96" y2="215.06"/><polyline class="cls-1" points="181.84 215.06 180.72 215.06 180.72 213.94"/><line class="cls-2" x1="180.72" y1="211.7" x2="180.72" y2="194.85"/><polyline class="cls-1" points="180.72 193.73 180.72 192.6 181.84 192.6"/><line class="cls-2" x1="184.09" y1="192.6" x2="200.93" y2="192.6"/><polyline class="cls-1" points="202.05 192.6 203.18 192.6 203.18 193.73"/><line class="cls-2" x1="203.18" y1="195.97" x2="203.18" y2="212.82"/><polyline class="cls-1" points="34.58 242.64 34.58 243.76 33.46 243.76"/><line class="cls-2" x1="31.22" y1="243.76" x2="14.37" y2="243.76"/><polyline class="cls-1" points="13.25 243.76 12.13 243.76 12.13 242.64"/><line class="cls-2" x1="12.12" y1="240.39" x2="12.12" y2="223.55"/><polyline class="cls-1" points="12.13 222.43 12.13 221.3 13.25 221.3"/><line class="cls-2" x1="15.49" y1="221.3" x2="32.34" y2="221.3"/><polyline class="cls-1" points="33.46 221.3 34.58 221.3 34.58 222.43"/><line class="cls-2" x1="34.58" y1="224.67" x2="34.58" y2="241.52"/><polyline class="cls-1" points="62.62 242.64 62.62 243.76 61.5 243.76"/><line class="cls-2" x1="59.25" y1="243.76" x2="42.41" y2="243.76"/><polyline class="cls-1" points="41.29 243.76 40.16 243.76 40.16 242.64"/><line class="cls-2" x1="40.16" y1="240.39" x2="40.16" y2="223.55"/><polyline class="cls-1" points="40.16 222.43 40.16 221.3 41.29 221.3"/><line class="cls-2" x1="43.53" y1="221.3" x2="60.38" y2="221.3"/><polyline class="cls-1" points="61.5 221.3 62.62 221.3 62.62 222.43"/><line class="cls-2" x1="62.62" y1="224.67" x2="62.62" y2="241.52"/><polyline class="cls-1" points="90.66 242.64 90.66 243.76 89.54 243.76"/><line class="cls-2" x1="87.29" y1="243.76" x2="70.45" y2="243.76"/><polyline class="cls-1" points="69.33 243.76 68.2 243.76 68.2 242.64"/><line class="cls-2" x1="68.2" y1="240.39" x2="68.2" y2="223.55"/><polyline class="cls-1" points="68.2 222.43 68.2 221.3 69.33 221.3"/><line class="cls-2" x1="71.57" y1="221.3" x2="88.42" y2="221.3"/><polyline class="cls-1" points="89.54 221.3 90.66 221.3 90.66 222.43"/><line class="cls-2" x1="90.66" y1="224.67" x2="90.66" y2="241.52"/><polyline class="cls-1" points="118.7 242.64 118.7 243.76 117.58 243.76"/><line class="cls-2" x1="115.33" y1="243.76" x2="98.49" y2="243.76"/><polyline class="cls-1" points="97.36 243.76 96.24 243.76 96.24 242.64"/><line class="cls-2" x1="96.24" y1="240.39" x2="96.24" y2="223.55"/><polyline class="cls-1" points="96.24 222.43 96.24 221.3 97.36 221.3"/><line class="cls-2" x1="99.61" y1="221.3" x2="116.46" y2="221.3"/><polyline class="cls-1" points="117.58 221.3 118.7 221.3 118.7 222.43"/><line class="cls-2" x1="118.7" y1="224.67" x2="118.7" y2="241.52"/><polyline class="cls-1" points="146.74 242.64 146.74 243.76 145.62 243.76"/><line class="cls-2" x1="143.37" y1="243.76" x2="126.53" y2="243.76"/><polyline class="cls-1" points="125.4 243.76 124.28 243.76 124.28 242.64"/><line class="cls-2" x1="124.28" y1="240.39" x2="124.28" y2="223.55"/><polyline class="cls-1" points="124.28 222.43 124.28 221.3 125.4 221.3"/><line class="cls-2" x1="127.65" y1="221.3" x2="144.49" y2="221.3"/><polyline class="cls-1" points="145.62 221.3 146.74 221.3 146.74 222.43"/><line class="cls-2" x1="146.74" y1="224.67" x2="146.74" y2="241.52"/><polyline class="cls-1" points="174.96 242.87 174.96 243.99 173.84 243.99"/><line class="cls-2" x1="171.59" y1="243.99" x2="154.74" y2="243.99"/><polyline class="cls-1" points="153.62 243.99 152.5 243.99 152.5 242.87"/><line class="cls-2" x1="152.5" y1="240.62" x2="152.5" y2="223.77"/><polyline class="cls-1" points="152.5 222.65 152.5 221.53 153.62 221.53"/><line class="cls-2" x1="155.87" y1="221.53" x2="172.71" y2="221.53"/><polyline class="cls-1" points="173.84 221.53 174.96 221.53 174.96 222.65"/><line class="cls-2" x1="174.96" y1="224.9" x2="174.96" y2="241.74"/><polyline class="cls-1" points="203.18 243.09 203.18 244.21 202.05 244.21"/><line class="cls-2" x1="199.81" y1="244.21" x2="182.96" y2="244.21"/><polyline class="cls-1" points="181.84 244.21 180.72 244.21 180.72 243.09"/><line class="cls-2" x1="180.72" y1="240.84" x2="180.72" y2="224"/><polyline class="cls-1" points="180.72 222.88 180.72 221.75 181.84 221.75"/><line class="cls-2" x1="184.09" y1="221.75" x2="200.93" y2="221.75"/><polyline class="cls-1" points="202.05 221.75 203.18 221.75 203.18 222.88"/><line class="cls-2" x1="203.18" y1="225.12" x2="203.18" y2="241.97"/><polyline class="cls-1" points="34.58 271.79 34.58 272.91 33.46 272.91"/><line class="cls-2" x1="31.22" y1="272.91" x2="14.37" y2="272.91"/><polyline class="cls-1" points="13.25 272.91 12.13 272.91 12.13 271.79"/><line class="cls-2" x1="12.12" y1="269.54" x2="12.12" y2="252.7"/><polyline class="cls-1" points="12.13 251.57 12.13 250.45 13.25 250.45"/><line class="cls-2" x1="15.49" y1="250.45" x2="32.34" y2="250.45"/><polyline class="cls-1" points="33.46 250.45 34.58 250.45 34.58 251.57"/><line class="cls-2" x1="34.58" y1="253.82" x2="34.58" y2="270.67"/><polyline class="cls-1" points="62.62 271.79 62.62 272.91 61.5 272.91"/><line class="cls-2" x1="59.25" y1="272.91" x2="42.41" y2="272.91"/><polyline class="cls-1" points="41.29 272.91 40.16 272.91 40.16 271.79"/><line class="cls-2" x1="40.16" y1="269.54" x2="40.16" y2="252.7"/><polyline class="cls-1" points="40.16 251.57 40.16 250.45 41.29 250.45"/><line class="cls-2" x1="43.53" y1="250.45" x2="60.38" y2="250.45"/><polyline class="cls-1" points="61.5 250.45 62.62 250.45 62.62 251.57"/><line class="cls-2" x1="62.62" y1="253.82" x2="62.62" y2="270.67"/><polyline class="cls-1" points="90.66 271.79 90.66 272.91 89.54 272.91"/><line class="cls-2" x1="87.29" y1="272.91" x2="70.45" y2="272.91"/><polyline class="cls-1" points="69.33 272.91 68.2 272.91 68.2 271.79"/><line class="cls-2" x1="68.2" y1="269.54" x2="68.2" y2="252.7"/><polyline class="cls-1" points="68.2 251.57 68.2 250.45 69.33 250.45"/><line class="cls-2" x1="71.57" y1="250.45" x2="88.42" y2="250.45"/><polyline class="cls-1" points="89.54 250.45 90.66 250.45 90.66 251.57"/><line class="cls-2" x1="90.66" y1="253.82" x2="90.66" y2="270.67"/><polyline class="cls-1" points="118.7 271.79 118.7 272.91 117.58 272.91"/><line class="cls-2" x1="115.33" y1="272.91" x2="98.49" y2="272.91"/><polyline class="cls-1" points="97.36 272.91 96.24 272.91 96.24 271.79"/><line class="cls-2" x1="96.24" y1="269.54" x2="96.24" y2="252.7"/><polyline class="cls-1" points="96.24 251.57 96.24 250.45 97.36 250.45"/><line class="cls-2" x1="99.61" y1="250.45" x2="116.46" y2="250.45"/><polyline class="cls-1" points="117.58 250.45 118.7 250.45 118.7 251.57"/><line class="cls-2" x1="118.7" y1="253.82" x2="118.7" y2="270.67"/><polyline class="cls-1" points="146.74 271.79 146.74 272.91 145.62 272.91"/><line class="cls-2" x1="143.37" y1="272.91" x2="126.53" y2="272.91"/><polyline class="cls-1" points="125.4 272.91 124.28 272.91 124.28 271.79"/><line class="cls-2" x1="124.28" y1="269.54" x2="124.28" y2="252.7"/><polyline class="cls-1" points="124.28 251.57 124.28 250.45 125.4 250.45"/><line class="cls-2" x1="127.65" y1="250.45" x2="144.49" y2="250.45"/><polyline class="cls-1" points="145.62 250.45 146.74 250.45 146.74 251.57"/><line class="cls-2" x1="146.74" y1="253.82" x2="146.74" y2="270.67"/><polyline class="cls-1" points="174.96 272.01 174.96 273.14 173.84 273.14"/><line class="cls-2" x1="171.59" y1="273.14" x2="154.74" y2="273.14"/><polyline class="cls-1" points="153.62 273.14 152.5 273.14 152.5 272.01"/><line class="cls-2" x1="152.5" y1="269.77" x2="152.5" y2="252.92"/><polyline class="cls-1" points="152.5 251.8 152.5 250.68 153.62 250.68"/><line class="cls-2" x1="155.87" y1="250.68" x2="172.71" y2="250.68"/><polyline class="cls-1" points="173.84 250.68 174.96 250.68 174.96 251.8"/><line class="cls-2" x1="174.96" y1="254.05" x2="174.96" y2="270.89"/><polyline class="cls-1" points="203.18 272.24 203.18 273.36 202.05 273.36"/><line class="cls-2" x1="199.81" y1="273.36" x2="182.96" y2="273.36"/><polyline class="cls-1" points="181.84 273.36 180.72 273.36 180.72 272.24"/><line class="cls-2" x1="180.72" y1="269.99" x2="180.72" y2="253.15"/><polyline class="cls-1" points="180.72 252.02 180.72 250.9 181.84 250.9"/><line class="cls-2" x1="184.09" y1="250.9" x2="200.93" y2="250.9"/><polyline class="cls-1" points="202.05 250.9 203.18 250.9 203.18 252.02"/><line class="cls-2" x1="203.18" y1="254.27" x2="203.18" y2="271.12"/><polyline class="cls-1" points="34.58 300.94 34.58 302.06 33.46 302.06"/><line class="cls-2" x1="31.22" y1="302.06" x2="14.37" y2="302.06"/><polyline class="cls-1" points="13.25 302.06 12.13 302.06 12.13 300.94"/><line class="cls-2" x1="12.12" y1="298.69" x2="12.12" y2="281.85"/><polyline class="cls-1" points="12.13 280.72 12.13 279.6 13.25 279.6"/><line class="cls-2" x1="15.49" y1="279.6" x2="32.34" y2="279.6"/><polyline class="cls-1" points="33.46 279.6 34.58 279.6 34.58 280.72"/><line class="cls-2" x1="34.58" y1="282.97" x2="34.58" y2="299.81"/><polyline class="cls-1" points="62.62 300.94 62.62 302.06 61.5 302.06"/><line class="cls-2" x1="59.25" y1="302.06" x2="42.41" y2="302.06"/><polyline class="cls-1" points="41.29 302.06 40.16 302.06 40.16 300.94"/><line class="cls-2" x1="40.16" y1="298.69" x2="40.16" y2="281.85"/><polyline class="cls-1" points="40.16 280.72 40.16 279.6 41.29 279.6"/><line class="cls-2" x1="43.53" y1="279.6" x2="60.38" y2="279.6"/><polyline class="cls-1" points="61.5 279.6 62.62 279.6 62.62 280.72"/><line class="cls-2" x1="62.62" y1="282.97" x2="62.62" y2="299.81"/><polyline class="cls-1" points="90.66 300.94 90.66 302.06 89.54 302.06"/><line class="cls-2" x1="87.29" y1="302.06" x2="70.45" y2="302.06"/><polyline class="cls-1" points="69.33 302.06 68.2 302.06 68.2 300.94"/><line class="cls-2" x1="68.2" y1="298.69" x2="68.2" y2="281.85"/><polyline class="cls-1" points="68.2 280.72 68.2 279.6 69.33 279.6"/><line class="cls-2" x1="71.57" y1="279.6" x2="88.42" y2="279.6"/><polyline class="cls-1" points="89.54 279.6 90.66 279.6 90.66 280.72"/><line class="cls-2" x1="90.66" y1="282.97" x2="90.66" y2="299.81"/><polyline class="cls-1" points="118.7 300.94 118.7 302.06 117.58 302.06"/><line class="cls-2" x1="115.33" y1="302.06" x2="98.49" y2="302.06"/><polyline class="cls-1" points="97.36 302.06 96.24 302.06 96.24 300.94"/><line class="cls-2" x1="96.24" y1="298.69" x2="96.24" y2="281.85"/><polyline class="cls-1" points="96.24 280.72 96.24 279.6 97.36 279.6"/><line class="cls-2" x1="99.61" y1="279.6" x2="116.46" y2="279.6"/><polyline class="cls-1" points="117.58 279.6 118.7 279.6 118.7 280.72"/><line class="cls-2" x1="118.7" y1="282.97" x2="118.7" y2="299.81"/><polyline class="cls-1" points="146.74 300.94 146.74 302.06 145.62 302.06"/><line class="cls-2" x1="143.37" y1="302.06" x2="126.53" y2="302.06"/><polyline class="cls-1" points="125.4 302.06 124.28 302.06 124.28 300.94"/><line class="cls-2" x1="124.28" y1="298.69" x2="124.28" y2="281.85"/><polyline class="cls-1" points="124.28 280.72 124.28 279.6 125.4 279.6"/><line class="cls-2" x1="127.65" y1="279.6" x2="144.49" y2="279.6"/><polyline class="cls-1" points="145.62 279.6 146.74 279.6 146.74 280.72"/><line class="cls-2" x1="146.74" y1="282.97" x2="146.74" y2="299.81"/><polyline class="cls-1" points="174.96 301.16 174.96 302.29 173.84 302.29"/><line class="cls-2" x1="171.59" y1="302.28" x2="154.74" y2="302.28"/><polyline class="cls-1" points="153.62 302.29 152.5 302.29 152.5 301.16"/><line class="cls-2" x1="152.5" y1="298.92" x2="152.5" y2="282.07"/><polyline class="cls-1" points="152.5 280.95 152.5 279.82 153.62 279.82"/><line class="cls-2" x1="155.87" y1="279.83" x2="172.71" y2="279.83"/><polyline class="cls-1" points="173.84 279.82 174.96 279.82 174.96 280.95"/><line class="cls-2" x1="174.96" y1="283.19" x2="174.96" y2="300.04"/><polyline class="cls-1" points="203.18 301.39 203.18 302.51 202.05 302.51"/><line class="cls-2" x1="199.81" y1="302.51" x2="182.96" y2="302.51"/><polyline class="cls-1" points="181.84 302.51 180.72 302.51 180.72 301.39"/><line class="cls-2" x1="180.72" y1="299.14" x2="180.72" y2="282.3"/><polyline class="cls-1" points="180.72 281.17 180.72 280.05 181.84 280.05"/><line class="cls-2" x1="184.09" y1="280.05" x2="200.93" y2="280.05"/><polyline class="cls-1" points="202.05 280.05 203.18 280.05 203.18 281.17"/><line class="cls-2" x1="203.18" y1="283.42" x2="203.18" y2="300.26"/><polyline class="cls-1" points="231.39 39.28 231.39 40.4 230.27 40.4"/><line class="cls-3" x1="228.02" y1="40.4" x2="211.18" y2="40.4"/><polyline class="cls-1" points="210.06 40.4 208.93 40.4 208.93 39.28"/><line class="cls-2" x1="208.93" y1="37.03" x2="208.93" y2="20.19"/><polyline class="cls-1" points="208.93 19.06 208.93 17.94 210.06 17.94"/><line class="cls-3" x1="212.3" y1="17.94" x2="229.15" y2="17.94"/><polyline class="cls-1" points="230.27 17.94 231.39 17.94 231.39 19.06"/><line class="cls-2" x1="231.39" y1="21.31" x2="231.39" y2="38.15"/><polyline class="cls-1" points="231.39 68.42 231.39 69.55 230.27 69.55"/><line class="cls-3" x1="228.02" y1="69.55" x2="211.18" y2="69.55"/><polyline class="cls-1" points="210.06 69.55 208.93 69.55 208.93 68.42"/><line class="cls-2" x1="208.93" y1="66.18" x2="208.93" y2="49.33"/><polyline class="cls-1" points="208.93 48.21 208.93 47.09 210.06 47.09"/><line class="cls-3" x1="212.3" y1="47.09" x2="229.15" y2="47.09"/><polyline class="cls-1" points="230.27 47.09 231.39 47.09 231.39 48.21"/><line class="cls-2" x1="231.39" y1="50.46" x2="231.39" y2="67.3"/><polyline class="cls-1" points="231.39 97.57 231.39 98.7 230.27 98.7"/><line class="cls-3" x1="228.02" y1="98.7" x2="211.18" y2="98.7"/><polyline class="cls-1" points="210.06 98.7 208.93 98.7 208.93 97.57"/><line class="cls-2" x1="208.93" y1="95.33" x2="208.93" y2="78.48"/><polyline class="cls-1" points="208.93 77.36 208.93 76.24 210.06 76.24"/><line class="cls-3" x1="212.3" y1="76.24" x2="229.15" y2="76.24"/><polyline class="cls-1" points="230.27 76.24 231.39 76.24 231.39 77.36"/><line class="cls-2" x1="231.39" y1="79.61" x2="231.39" y2="96.45"/><polyline class="cls-1" points="231.39 126.72 231.39 127.84 230.27 127.84"/><line class="cls-3" x1="228.02" y1="127.84" x2="211.18" y2="127.84"/><polyline class="cls-1" points="210.06 127.84 208.93 127.84 208.93 126.72"/><line class="cls-2" x1="208.93" y1="124.48" x2="208.93" y2="107.63"/><polyline class="cls-1" points="208.93 106.51 208.93 105.39 210.06 105.39"/><line class="cls-3" x1="212.3" y1="105.38" x2="229.15" y2="105.38"/><polyline class="cls-1" points="230.27 105.39 231.39 105.39 231.39 106.51"/><line class="cls-2" x1="231.39" y1="108.75" x2="231.39" y2="125.6"/><polyline class="cls-1" points="231.39 155.87 231.39 156.99 230.27 156.99"/><line class="cls-3" x1="228.02" y1="156.99" x2="211.18" y2="156.99"/><polyline class="cls-1" points="210.06 156.99 208.93 156.99 208.93 155.87"/><line class="cls-2" x1="208.93" y1="153.62" x2="208.93" y2="136.78"/><polyline class="cls-1" points="208.93 135.66 208.93 134.53 210.06 134.53"/><line class="cls-3" x1="212.3" y1="134.53" x2="229.15" y2="134.53"/><polyline class="cls-1" points="230.27 134.53 231.39 134.53 231.39 135.66"/><line class="cls-2" x1="231.39" y1="137.9" x2="231.39" y2="154.75"/><polyline class="cls-1" points="231.39 185.02 231.39 186.14 230.27 186.14"/><line class="cls-3" x1="228.02" y1="186.14" x2="211.18" y2="186.14"/><polyline class="cls-1" points="210.06 186.14 208.93 186.14 208.93 185.02"/><line class="cls-2" x1="208.93" y1="182.77" x2="208.93" y2="165.93"/><polyline class="cls-1" points="208.93 164.8 208.93 163.68 210.06 163.68"/><line class="cls-3" x1="212.3" y1="163.68" x2="229.15" y2="163.68"/><polyline class="cls-1" points="230.27 163.68 231.39 163.68 231.39 164.8"/><line class="cls-2" x1="231.39" y1="167.05" x2="231.39" y2="183.9"/><polyline class="cls-1" points="231.39 214.17 231.39 215.29 230.27 215.29"/><line class="cls-3" x1="228.02" y1="215.29" x2="211.18" y2="215.29"/><polyline class="cls-1" points="210.06 215.29 208.93 215.29 208.93 214.17"/><line class="cls-2" x1="208.93" y1="211.92" x2="208.93" y2="195.08"/><polyline class="cls-1" points="208.93 193.95 208.93 192.83 210.06 192.83"/><line class="cls-3" x1="212.3" y1="192.83" x2="229.15" y2="192.83"/><polyline class="cls-1" points="230.27 192.83 231.39 192.83 231.39 193.95"/><line class="cls-2" x1="231.39" y1="196.2" x2="231.39" y2="213.04"/><polyline class="cls-1" points="231.39 243.31 231.39 244.44 230.27 244.44"/><line class="cls-3" x1="228.02" y1="244.44" x2="211.18" y2="244.44"/><polyline class="cls-1" points="210.06 244.44 208.93 244.44 208.93 243.31"/><line class="cls-2" x1="208.93" y1="241.07" x2="208.93" y2="224.22"/><polyline class="cls-1" points="208.93 223.1 208.93 221.98 210.06 221.98"/><line class="cls-3" x1="212.3" y1="221.98" x2="229.15" y2="221.98"/><polyline class="cls-1" points="230.27 221.98 231.39 221.98 231.39 223.1"/><line class="cls-2" x1="231.39" y1="225.35" x2="231.39" y2="242.19"/><polyline class="cls-1" points="231.39 272.46 231.39 273.59 230.27 273.59"/><line class="cls-3" x1="228.02" y1="273.59" x2="211.18" y2="273.59"/><polyline class="cls-1" points="210.06 273.59 208.93 273.59 208.93 272.46"/><line class="cls-2" x1="208.93" y1="270.22" x2="208.93" y2="253.37"/><polyline class="cls-1" points="208.93 252.25 208.93 251.13 210.06 251.13"/><line class="cls-3" x1="212.3" y1="251.13" x2="229.15" y2="251.13"/><polyline class="cls-1" points="230.27 251.13 231.39 251.13 231.39 252.25"/><line class="cls-2" x1="231.39" y1="254.5" x2="231.39" y2="271.34"/><polyline class="cls-1" points="231.39 301.61 231.39 302.73 230.27 302.73"/><line class="cls-3" x1="228.02" y1="302.73" x2="211.18" y2="302.73"/><polyline class="cls-1" points="210.06 302.73 208.93 302.73 208.93 301.61"/><line class="cls-2" x1="208.93" y1="299.37" x2="208.93" y2="282.52"/><polyline class="cls-1" points="208.93 281.4 208.93 280.27 210.06 280.27"/><line class="cls-3" x1="212.3" y1="280.27" x2="229.15" y2="280.27"/><polyline class="cls-1" points="230.27 280.27 231.39 280.27 231.39 281.4"/><line class="cls-2" x1="231.39" y1="283.64" x2="231.39" y2="300.49"/><polyline class="cls-1" points="259.63 39.28 259.63 40.4 258.51 40.4"/><line class="cls-3" x1="256.27" y1="40.4" x2="239.42" y2="40.4"/><polyline class="cls-1" points="238.3 40.4 237.18 40.4 237.18 39.28"/><line class="cls-2" x1="237.17" y1="37.03" x2="237.17" y2="20.19"/><polyline class="cls-1" points="237.18 19.06 237.18 17.94 238.3 17.94"/><line class="cls-3" x1="240.54" y1="17.94" x2="257.39" y2="17.94"/><polyline class="cls-1" points="258.51 17.94 259.63 17.94 259.63 19.06"/><line class="cls-2" x1="259.63" y1="21.31" x2="259.63" y2="38.15"/><polyline class="cls-1" points="259.63 68.42 259.63 69.55 258.51 69.55"/><line class="cls-3" x1="256.27" y1="69.55" x2="239.42" y2="69.55"/><polyline class="cls-1" points="238.3 69.55 237.18 69.55 237.18 68.42"/><line class="cls-2" x1="237.17" y1="66.18" x2="237.17" y2="49.33"/><polyline class="cls-1" points="237.18 48.21 237.18 47.09 238.3 47.09"/><line class="cls-3" x1="240.54" y1="47.09" x2="257.39" y2="47.09"/><polyline class="cls-1" points="258.51 47.09 259.63 47.09 259.63 48.21"/><line class="cls-2" x1="259.63" y1="50.46" x2="259.63" y2="67.3"/><polyline class="cls-1" points="259.63 97.57 259.63 98.7 258.51 98.7"/><line class="cls-3" x1="256.27" y1="98.7" x2="239.42" y2="98.7"/><polyline class="cls-1" points="238.3 98.7 237.18 98.7 237.18 97.57"/><line class="cls-2" x1="237.17" y1="95.33" x2="237.17" y2="78.48"/><polyline class="cls-1" points="237.18 77.36 237.18 76.24 238.3 76.24"/><line class="cls-3" x1="240.54" y1="76.24" x2="257.39" y2="76.24"/><polyline class="cls-1" points="258.51 76.24 259.63 76.24 259.63 77.36"/><line class="cls-2" x1="259.63" y1="79.61" x2="259.63" y2="96.45"/><polyline class="cls-1" points="259.63 126.72 259.63 127.84 258.51 127.84"/><line class="cls-3" x1="256.27" y1="127.84" x2="239.42" y2="127.84"/><polyline class="cls-1" points="238.3 127.84 237.18 127.84 237.18 126.72"/><line class="cls-2" x1="237.17" y1="124.48" x2="237.17" y2="107.63"/><polyline class="cls-1" points="237.18 106.51 237.18 105.39 238.3 105.39"/><line class="cls-3" x1="240.54" y1="105.38" x2="257.39" y2="105.38"/><polyline class="cls-1" points="258.51 105.39 259.63 105.39 259.63 106.51"/><line class="cls-2" x1="259.63" y1="108.75" x2="259.63" y2="125.6"/><polyline class="cls-1" points="259.63 155.87 259.63 156.99 258.51 156.99"/><line class="cls-3" x1="256.27" y1="156.99" x2="239.42" y2="156.99"/><polyline class="cls-1" points="238.3 156.99 237.18 156.99 237.18 155.87"/><line class="cls-2" x1="237.17" y1="153.62" x2="237.17" y2="136.78"/><polyline class="cls-1" points="237.18 135.66 237.18 134.53 238.3 134.53"/><line class="cls-3" x1="240.54" y1="134.53" x2="257.39" y2="134.53"/><polyline class="cls-1" points="258.51 134.53 259.63 134.53 259.63 135.66"/><line class="cls-2" x1="259.63" y1="137.9" x2="259.63" y2="154.75"/><polyline class="cls-1" points="259.63 185.02 259.63 186.14 258.51 186.14"/><line class="cls-3" x1="256.27" y1="186.14" x2="239.42" y2="186.14"/><polyline class="cls-1" points="238.3 186.14 237.18 186.14 237.18 185.02"/><line class="cls-2" x1="237.17" y1="182.77" x2="237.17" y2="165.93"/><polyline class="cls-1" points="237.18 164.8 237.18 163.68 238.3 163.68"/><line class="cls-3" x1="240.54" y1="163.68" x2="257.39" y2="163.68"/><polyline class="cls-1" points="258.51 163.68 259.63 163.68 259.63 164.8"/><line class="cls-2" x1="259.63" y1="167.05" x2="259.63" y2="183.9"/><polyline class="cls-1" points="259.63 214.17 259.63 215.29 258.51 215.29"/><line class="cls-3" x1="256.27" y1="215.29" x2="239.42" y2="215.29"/><polyline class="cls-1" points="238.3 215.29 237.18 215.29 237.18 214.17"/><line class="cls-2" x1="237.17" y1="211.92" x2="237.17" y2="195.08"/><polyline class="cls-1" points="237.18 193.95 237.18 192.83 238.3 192.83"/><line class="cls-3" x1="240.54" y1="192.83" x2="257.39" y2="192.83"/><polyline class="cls-1" points="258.51 192.83 259.63 192.83 259.63 193.95"/><line class="cls-2" x1="259.63" y1="196.2" x2="259.63" y2="213.04"/><polyline class="cls-1" points="259.63 243.31 259.63 244.44 258.51 244.44"/><line class="cls-3" x1="256.27" y1="244.44" x2="239.42" y2="244.44"/><polyline class="cls-1" points="238.3 244.44 237.18 244.44 237.18 243.31"/><line class="cls-2" x1="237.17" y1="241.07" x2="237.17" y2="224.22"/><polyline class="cls-1" points="237.18 223.1 237.18 221.98 238.3 221.98"/><line class="cls-3" x1="240.54" y1="221.98" x2="257.39" y2="221.98"/><polyline class="cls-1" points="258.51 221.98 259.63 221.98 259.63 223.1"/><line class="cls-2" x1="259.63" y1="225.35" x2="259.63" y2="242.19"/><polyline class="cls-1" points="259.63 272.46 259.63 273.59 258.51 273.59"/><line class="cls-3" x1="256.27" y1="273.59" x2="239.42" y2="273.59"/><polyline class="cls-1" points="238.3 273.59 237.18 273.59 237.18 272.46"/><line class="cls-2" x1="237.17" y1="270.22" x2="237.17" y2="253.37"/><polyline class="cls-1" points="237.18 252.25 237.18 251.13 238.3 251.13"/><line class="cls-3" x1="240.54" y1="251.13" x2="257.39" y2="251.13"/><polyline class="cls-1" points="258.51 251.13 259.63 251.13 259.63 252.25"/><line class="cls-2" x1="259.63" y1="254.5" x2="259.63" y2="271.34"/><polyline class="cls-1" points="259.63 301.61 259.63 302.73 258.51 302.73"/><line class="cls-3" x1="256.27" y1="302.73" x2="239.42" y2="302.73"/><polyline class="cls-1" points="238.3 302.73 237.18 302.73 237.18 301.61"/><line class="cls-2" x1="237.17" y1="299.37" x2="237.17" y2="282.52"/><polyline class="cls-1" points="237.18 281.4 237.18 280.27 238.3 280.27"/><line class="cls-3" x1="240.54" y1="280.27" x2="257.39" y2="280.27"/><polyline class="cls-1" points="258.51 280.27 259.63 280.27 259.63 281.4"/><line class="cls-2" x1="259.63" y1="283.64" x2="259.63" y2="300.49"/><polyline class="cls-1" points="287.88 39.28 287.88 40.4 286.75 40.4"/><line class="cls-3" x1="284.51" y1="40.4" x2="267.66" y2="40.4"/><polyline class="cls-1" points="266.54 40.4 265.42 40.4 265.42 39.28"/><line class="cls-2" x1="265.42" y1="37.03" x2="265.42" y2="20.19"/><polyline class="cls-1" points="265.42 19.06 265.42 17.94 266.54 17.94"/><line class="cls-3" x1="268.78" y1="17.94" x2="285.63" y2="17.94"/><polyline class="cls-1" points="286.75 17.94 287.88 17.94 287.88 19.06"/><line class="cls-2" x1="287.88" y1="21.31" x2="287.88" y2="38.15"/><polyline class="cls-1" points="287.88 68.42 287.88 69.55 286.75 69.55"/><line class="cls-3" x1="284.51" y1="69.55" x2="267.66" y2="69.55"/><polyline class="cls-1" points="266.54 69.55 265.42 69.55 265.42 68.42"/><line class="cls-2" x1="265.42" y1="66.18" x2="265.42" y2="49.33"/><polyline class="cls-1" points="265.42 48.21 265.42 47.09 266.54 47.09"/><line class="cls-3" x1="268.78" y1="47.09" x2="285.63" y2="47.09"/><polyline class="cls-1" points="286.75 47.09 287.88 47.09 287.88 48.21"/><line class="cls-2" x1="287.88" y1="50.46" x2="287.88" y2="67.3"/><polyline class="cls-1" points="287.88 97.57 287.88 98.7 286.75 98.7"/><line class="cls-3" x1="284.51" y1="98.7" x2="267.66" y2="98.7"/><polyline class="cls-1" points="266.54 98.7 265.42 98.7 265.42 97.57"/><line class="cls-2" x1="265.42" y1="95.33" x2="265.42" y2="78.48"/><polyline class="cls-1" points="265.42 77.36 265.42 76.24 266.54 76.24"/><line class="cls-3" x1="268.78" y1="76.24" x2="285.63" y2="76.24"/><polyline class="cls-1" points="286.75 76.24 287.88 76.24 287.88 77.36"/><line class="cls-2" x1="287.88" y1="79.61" x2="287.88" y2="96.45"/><polyline class="cls-1" points="287.88 126.72 287.88 127.84 286.75 127.84"/><line class="cls-3" x1="284.51" y1="127.84" x2="267.66" y2="127.84"/><polyline class="cls-1" points="266.54 127.84 265.42 127.84 265.42 126.72"/><line class="cls-2" x1="265.42" y1="124.48" x2="265.42" y2="107.63"/><polyline class="cls-1" points="265.42 106.51 265.42 105.39 266.54 105.39"/><line class="cls-3" x1="268.78" y1="105.38" x2="285.63" y2="105.38"/><polyline class="cls-1" points="286.75 105.39 287.88 105.39 287.88 106.51"/><line class="cls-2" x1="287.88" y1="108.75" x2="287.88" y2="125.6"/><polyline class="cls-1" points="287.88 155.87 287.88 156.99 286.75 156.99"/><line class="cls-3" x1="284.51" y1="156.99" x2="267.66" y2="156.99"/><polyline class="cls-1" points="266.54 156.99 265.42 156.99 265.42 155.87"/><line class="cls-2" x1="265.42" y1="153.62" x2="265.42" y2="136.78"/><polyline class="cls-1" points="265.42 135.66 265.42 134.53 266.54 134.53"/><line class="cls-3" x1="268.78" y1="134.53" x2="285.63" y2="134.53"/><polyline class="cls-1" points="286.75 134.53 287.88 134.53 287.88 135.66"/><line class="cls-2" x1="287.88" y1="137.9" x2="287.88" y2="154.75"/><polyline class="cls-1" points="287.88 185.02 287.88 186.14 286.75 186.14"/><line class="cls-3" x1="284.51" y1="186.14" x2="267.66" y2="186.14"/><polyline class="cls-1" points="266.54 186.14 265.42 186.14 265.42 185.02"/><line class="cls-2" x1="265.42" y1="182.77" x2="265.42" y2="165.93"/><polyline class="cls-1" points="265.42 164.8 265.42 163.68 266.54 163.68"/><line class="cls-3" x1="268.78" y1="163.68" x2="285.63" y2="163.68"/><polyline class="cls-1" points="286.75 163.68 287.88 163.68 287.88 164.8"/><line class="cls-2" x1="287.88" y1="167.05" x2="287.88" y2="183.9"/><polyline class="cls-1" points="287.88 214.17 287.88 215.29 286.75 215.29"/><line class="cls-3" x1="284.51" y1="215.29" x2="267.66" y2="215.29"/><polyline class="cls-1" points="266.54 215.29 265.42 215.29 265.42 214.17"/><line class="cls-2" x1="265.42" y1="211.92" x2="265.42" y2="195.08"/><polyline class="cls-1" points="265.42 193.95 265.42 192.83 266.54 192.83"/><line class="cls-3" x1="268.78" y1="192.83" x2="285.63" y2="192.83"/><polyline class="cls-1" points="286.75 192.83 287.88 192.83 287.88 193.95"/><line class="cls-2" x1="287.88" y1="196.2" x2="287.88" y2="213.04"/><polyline class="cls-1" points="287.88 243.31 287.88 244.44 286.75 244.44"/><line class="cls-3" x1="284.51" y1="244.44" x2="267.66" y2="244.44"/><polyline class="cls-1" points="266.54 244.44 265.42 244.44 265.42 243.31"/><line class="cls-2" x1="265.42" y1="241.07" x2="265.42" y2="224.22"/><polyline class="cls-1" points="265.42 223.1 265.42 221.98 266.54 221.98"/><line class="cls-3" x1="268.78" y1="221.98" x2="285.63" y2="221.98"/><polyline class="cls-1" points="286.75 221.98 287.88 221.98 287.88 223.1"/><line class="cls-2" x1="287.88" y1="225.35" x2="287.88" y2="242.19"/><polyline class="cls-1" points="287.88 272.46 287.88 273.59 286.75 273.59"/><line class="cls-3" x1="284.51" y1="273.59" x2="267.66" y2="273.59"/><polyline class="cls-1" points="266.54 273.59 265.42 273.59 265.42 272.46"/><line class="cls-2" x1="265.42" y1="270.22" x2="265.42" y2="253.37"/><polyline class="cls-1" points="265.42 252.25 265.42 251.13 266.54 251.13"/><line class="cls-3" x1="268.78" y1="251.13" x2="285.63" y2="251.13"/><polyline class="cls-1" points="286.75 251.13 287.88 251.13 287.88 252.25"/><line class="cls-2" x1="287.88" y1="254.5" x2="287.88" y2="271.34"/><polyline class="cls-1" points="287.88 301.61 287.88 302.73 286.75 302.73"/><line class="cls-3" x1="284.51" y1="302.73" x2="267.66" y2="302.73"/><polyline class="cls-1" points="266.54 302.73 265.42 302.73 265.42 301.61"/><line class="cls-2" x1="265.42" y1="299.37" x2="265.42" y2="282.52"/><polyline class="cls-1" points="265.42 281.4 265.42 280.27 266.54 280.27"/><line class="cls-3" x1="268.78" y1="280.27" x2="285.63" y2="280.27"/><polyline class="cls-1" points="286.75 280.27 287.88 280.27 287.88 281.4"/><line class="cls-2" x1="287.88" y1="283.64" x2="287.88" y2="300.49"/></svg>