<svg width="24" height="26" viewBox="0 0 24 26" fill="none" xmlns="http://www.w3.org/2000/svg">
<path d="M11.7301 0.290039H13.0001C22.3901 1.29004 24.6201 9.15004 23.6601 17.35C22.2001 18.9 20.2201 19.99 18.5801 21.35C18.4741 22.3128 18.444 23.2825 18.4901 24.25C18.5215 24.4785 18.473 24.7109 18.3527 24.9077C18.2324 25.1046 18.0478 25.2537 17.8301 25.33C14.3601 25.92 17.2001 22.21 15.0401 22.78C14.4101 23.5 15.3601 25.03 14.0901 25.38H13.6901C12.3201 25.07 13.5501 23.21 12.5701 22.69C10.9401 22.51 12.5701 25.13 11.0301 25.38C9.03006 25.57 10.6801 22.93 9.37005 22.67C7.79005 23.06 10.1501 25.94 6.87005 25.33C5.64005 24.66 6.47006 22.72 6.24006 21.55C4.87006 19.88 2.24006 18.99 1.03006 17.14C0.170058 9.03001 2.44005 1.20004 11.7301 0.290039ZM10.7301 13.97C10.7313 13.3882 10.5703 12.8175 10.2652 12.3221C9.96012 11.8266 9.52296 11.4261 9.00282 11.1653C8.48268 10.9046 7.90015 10.7939 7.32063 10.8459C6.74111 10.8978 6.18753 11.1103 5.72206 11.4594C5.25658 11.8085 4.89763 12.2804 4.6855 12.8222C4.47337 13.364 4.41645 13.9542 4.52115 14.5266C4.62584 15.0989 4.88799 15.6307 5.27818 16.0623C5.66837 16.494 6.17114 16.8083 6.73005 16.97C7.19574 17.1048 7.68637 17.1295 8.16325 17.0423C8.64013 16.9551 9.09024 16.7583 9.47807 16.4674C9.86591 16.1765 10.1809 15.7995 10.3981 15.3661C10.6154 14.9327 10.729 14.4548 10.7301 13.97ZM13.9801 13.97C13.9801 18.1 20.3101 18.05 20.2401 13.89C20.1701 9.73001 14.0001 9.94003 14.0001 13.97H13.9801ZM12.3601 19.42C14.8001 19.83 13.3601 17.6 12.5201 16.73C11.6801 16.61 11.5201 17.83 11.1401 18.33C10.4401 19.29 11.6001 19.55 12.3601 19.42Z" fill="#191919"/>
</svg>
