<svg id="Layer_1" data-name="Layer 1" xmlns="http://www.w3.org/2000/svg" viewBox="0 0 46 98"><defs><style>.cls-1{fill:#191919;}</style></defs><path class="cls-1" d="M23.38,64.94c-3,.4-1.28-1.21-1.82-3a3.35,3.35,0,0,0-.82-.46c-.61-.35-.69-1-1.12-1.57a20.32,20.32,0,0,0-3.12-.15,2.11,2.11,0,0,1-1.07,1.62l-.44,0c0,1.21,1.13,3.48-1.11,2.61-.28-.28-.13-.79-.15-1.16a3,3,0,0,1-.09-1.67.32.32,0,0,0-.21-.23c-1.56.06-2.09-1.32-2.74-2.46-.11-.66.44-1.55,0-2.08,0-.76.56-1.52.59-2.31,0-.49-.82-.54-.69-1.1.08-2.28.09-4.63,1.38-6.59,1.07-.3-.2-2.76.43-3.83A5.89,5.89,0,0,0,13,38.86c.75-3.21,3.06-6.17,6.77-5,.82.26,1.34,1,2.12,1.36,1.3,0,2.73-.24,4.08-.34,1.71.32,2.33-1.49,3.85-1.8a5.24,5.24,0,0,1,5.34,2.45c.63,2,.2,5-1.5,6.39.29,1.21-.87,2.19-1,3.37-.45.75-.14,1.8-.75,2.42l-.08-.05-.51,1.84c.86.3.3,1.24.86,1.79.2.33.38.67.55,1a1.35,1.35,0,0,0,.12,1.23l0-.09a1.53,1.53,0,0,1,.85.38c-.1.69.24,1.91-.71,2.08v1c.26.26.68.34.7.69-.18.6.08,1.77-.78,1.87-.45-.2-.64.49-.84.78-.38,1.36,1.2,4.44-1.32,3.94a13.37,13.37,0,0,1,.13-3.46l-1.63.48c.28,1.49-.2,1.43-1.51,1.15l-.08-.84c-1.48.08-2.85.43-4.32.58ZM20.15,49.11c.55-2.91,3.41-2,2.44-5-.8-.34-.36-1.56-1.09-1.94-2.35-1.19-2.28-4.58-4.52-5.93-.76,1.56-1.21,3.5-2.69,4.52a10,10,0,0,1-1,4.2,5.09,5.09,0,0,1,3.35,3.85C17.65,49.19,19,49,20.15,49.11ZM30.37,47a11.69,11.69,0,0,0,1-4.22c.51-1.07.29-1.24-.26-2.19-.17-1.07-.38-1.1-1.46-1a6.48,6.48,0,0,1-2.1,1.31,1.34,1.34,0,0,0-.16.49c0,.23-.27.44,0,.68a.37.37,0,0,1,.09.25c-.05.58.13,1.32-.15,1.84-.31.27-.19.59-.21.88a4.86,4.86,0,0,1,1.81,1C29.43,46.37,30,46.36,30.37,47Zm-4.74-7.37c-1.86.16-2-.12-2.22,1.79,1,1,.57,2.51,1,3.8,1,0,.56-1,.44-1.57C24.9,42.18,26,41.11,25.63,39.62ZM16.77,54.9v1.19a21.91,21.91,0,0,0,2.8.26l.13-1.65A14.35,14.35,0,0,0,16.77,54.9Zm.08-2.28a5,5,0,0,0,2.51.62c.76-.06.27-1.08.4-1.64H16.85Z"/></svg>