<svg width="26" height="33" viewBox="0 0 26 33" fill="none" xmlns="http://www.w3.org/2000/svg">
<path d="M23.88 9.18997C23.62 8.18997 21.44 6.59996 20.53 6.11996C20.07 5.78996 19.68 5.26997 19.96 4.78997C20.1 4.55997 19.38 3.96997 19.14 3.78997C18.9 3.60997 18.46 4.07996 18.23 3.92996C17.93 3.59996 18.32 2.74995 17.95 2.47995C17.58 2.20995 16.58 2.62995 16.45 2.29995C16.3636 2.09234 16.2934 1.87839 16.24 1.65997C16.1979 1.45789 16.1091 1.26847 15.9806 1.10696C15.8521 0.945445 15.6875 0.816311 15.5 0.729945C13.6 0.179945 10.25 0.239953 9.04998 2.04995C8.86209 2.45591 8.80613 2.91057 8.88998 3.34997C8.88998 3.51997 8.65998 3.34997 8.41998 3.34997C7.64998 3.48997 7.06998 4.41995 6.86998 5.10995C6.77998 5.39995 7.25998 5.90996 6.86998 6.02996C2.56998 8.24996 2.24998 10.4699 2.16998 14.9199C1.96998 18.1799 1.64999 21.43 1.34999 24.68C1.21999 25.85 1.15999 27.02 1.01999 28.19C0.935181 28.8128 0.905054 29.4419 0.929974 30.07C1.19238 30.3453 1.55015 30.5099 1.92997 30.53C2.59402 30.6136 3.26593 30.6136 3.92997 30.53C4.20997 30.46 4.69999 30.53 4.70999 30.16C5.40999 27.08 5.70998 23.88 6.16998 20.79C6.19161 21.8916 6.1482 22.9935 6.03997 24.09C5.93997 25.47 5.91998 26.8599 5.69998 28.2299C5.69998 28.6099 5.32999 31.3 5.76999 31.38C7.48999 32.28 9.76999 31.93 11.77 32.1C13.9148 32.3393 16.0858 32.1559 18.16 31.56C18.67 31.4 19.79 32.3 20.26 32.05C20.41 31.99 20.26 31.13 20.06 30.3C20.2501 30.4788 20.4617 30.6333 20.69 30.76C21.2058 31.0129 21.76 31.1785 22.33 31.25C22.59 31.25 23.54 31.4299 23.66 31.1999C24.1242 30.1608 24.5184 29.0918 24.84 28C25.4842 25.638 25.8435 23.2074 25.91 20.76C25.6426 16.8426 24.9621 12.9644 23.88 9.18997ZM20.34 28.31C20.22 28.88 20.13 29.47 20.02 30.05C19.9154 29.635 19.8352 29.2143 19.78 28.79C19.7 26.29 19.45 23.79 19.51 21.28C19.5735 19.6693 19.7271 18.0635 19.97 16.47C21.68 21.25 21.34 23.47 20.34 28.31Z" fill="#191919"/>
</svg>
